<?xml version="1.0" encoding="UTF-8"?>
<!DOCTYPE svg PUBLIC "-//W3C//DTD SVG 1.1//EN" "http://www.w3.org/Graphics/SVG/1.1/DTD/svg11.dtd">
<!-- Creator: CorelDRAW 2021 (64-Bit) -->
<svg xmlns="http://www.w3.org/2000/svg" xml:space="preserve" width="0.741098in" height="0.740067in" version="1.1" style="shape-rendering:geometricPrecision; text-rendering:geometricPrecision; image-rendering:optimizeQuality; fill-rule:evenodd; clip-rule:evenodd"
viewBox="0 0 75.83 75.73"
 xmlns:xlink="http://www.w3.org/1999/xlink"
 xmlns:xodm="http://www.corel.com/coreldraw/odm/2003">
 <defs>
  <style type="text/css">
   <![CDATA[
    .fil1 {fill:none}
    .fil0 {fill:#441890}
   ]]>
  </style>
   <clipPath id="id0">
    <path d="M-0 0l75.83 0 0 75.73 -75.83 0 0 -75.73z"/>
   </clipPath>
 </defs>
 <g id="Layer_x0020_1">
  <metadata id="CorelCorpID_0Corel-Layer"/>
  <g>
  </g>
  <g style="clip-path:url(#id0)">
   <g>
    <path class="fil0" d="M44.66 17.94c-0.64,0.48 -1.25,1.87 -4.5,3.68 -0.48,0.27 -1.4,0.75 -1.93,0.92 -1.16,0.35 -5.09,-2.49 -6.36,-3.82 -0.06,-0.06 -0.11,-0.12 -0.16,-0.17l-0.16 -0.16c-0.01,-0.01 -0.03,-0.03 -0.05,-0.05 -0.17,-0.31 -0.39,-0.56 -0.61,-0.9 -0.67,-1.03 -1.1,-1.87 -1.36,-3.18 -0.63,-3.09 1.05,-6.55 3.47,-8.2 2.12,-1.44 4.56,-1.93 7.13,-1.27 0.78,0.2 1.53,0.55 2.15,0.91 2.6,1.5 4.56,5.04 4.13,7.86 -0.47,3.09 -1.51,3.56 -1.74,4.38zm-15.44 2.21c0.92,1.1 3.57,3.5 4.77,3.82 -0.24,0.33 -0.83,0.47 -1.28,0.65 -5.81,2.33 -8.76,3.67 -14.11,7.23 -1.97,1.31 -3.58,2.88 -5.24,4.52 -0.39,0.38 -0.55,0.63 -0.91,1.02 -1.77,1.98 -3.37,5.06 -4,7.69 -0.92,3.82 -0.45,7.87 1.33,11.39 0.19,0.38 0.48,1.06 0.73,1.32 1.18,2.62 4.56,6.46 6.81,8.27 2.75,2.21 4.8,3.8 8.27,5.35 5.61,2.5 11.84,3.5 18.25,2.13 4.29,-0.92 8.93,-3.06 12.38,-5.67l3.9 -3.25c0.4,-0.35 0.52,-0.59 0.85,-0.96 1.7,-1.93 2.5,-2.65 3.95,-5.13 3.12,-5.31 4.07,-10.76 1.18,-16.98l-1.34 -2.29c-0.38,-0.56 -1.11,-1.63 -1.61,-2.05 -0.61,-0.99 -2.22,-2.38 -3.2,-3.24 -0.39,-0.34 -0.75,-0.67 -1.17,-0.98l-4.45 -3.04c-2.82,-1.77 -7.95,-4.12 -10.97,-5.26 -0.52,-0.2 -1.27,-0.36 -1.54,-0.73 1.21,-0.32 3.73,-2.65 4.68,-3.72 0.99,-1.11 2.54,-3.83 2.7,-5.71 0.82,-3.51 -1.14,-7.95 -3.78,-10.18 -9.33,-7.89 -23.27,2.19 -17.64,13.55 0.66,1.34 1.18,1.77 1.44,2.23zm26.68 31.33c0,3.63 -2.39,7.78 -4.56,10.51l-2.05 2.37 -3.47 3c-1.43,1.18 -3.72,2.63 -5.44,3.3 -3.54,1.39 -6.86,-0.75 -9.43,-2.68 -2.52,-1.89 -4.73,-3.87 -6.68,-6.37 -1.59,-2.03 -2.05,-3.03 -3.03,-5.14 -0.01,-0.03 -0.06,-0.12 -0.07,-0.15 -0.1,-0.17 -0.06,-0.11 -0.12,-0.19 -0.3,-1.51 -0.61,-1.48 -0.98,-4.06 -0.21,-1.52 -0.08,-3.03 0.36,-4.31 0.26,-0.74 0.44,-1.08 0.8,-1.69 3.29,-5.51 11.04,-5.71 14.71,-0.79l1.4 2.34c0.24,0.46 0.2,0.48 0.61,0.75 0.55,-0.37 1.24,-1.92 1.64,-2.56 2.2,-3.61 7.52,-5.5 12.02,-2.81 0.56,0.33 0.77,0.51 1.25,0.91 1.59,1.33 2.87,3.43 3.02,5.6 0.09,1.25 0.01,1.08 0.01,1.96zm-37.8 5.22c0.15,1.55 2.61,5.22 3.71,6.69 1.52,2.04 5,5.21 5.14,5.42 -1.25,-0.29 -5.08,-2.77 -6.32,-3.78 -1.44,-1.17 -2.76,-2.28 -3.93,-3.68 -1.02,-1.22 -1.66,-1.81 -2.67,-3.35 -0.46,-0.7 -0.85,-1.41 -1.27,-2.12 -1.36,-2.84 -2.41,-5.64 -1.58,-9.66 0.46,-2.21 1.53,-4.33 2.82,-6.04 1.79,-2.38 1.99,-2.41 4.42,-4.55l5.35 -3.61 8.03 -3.89c1.69,-0.76 3.58,-1.39 5.31,-2.07 0.47,-0.19 0.72,-0.31 1.19,-0.16l4.28 1.64c5.81,2.33 10.49,4.61 15.39,8.56 0.3,0.24 0.47,0.42 0.79,0.68 0.29,0.23 0.48,0.46 0.75,0.73l1.47 1.56c0.15,0.18 0.17,0.23 0.31,0.41 3.01,3.88 4.68,8.43 3,13.43 -0.81,2.42 -1.74,4.04 -3.21,6.1 -0.91,1.26 -2.44,3.03 -3.61,4.11 -1.88,1.74 -6.43,5.14 -8.37,5.59 0.31,-0.46 0.49,-0.46 0.88,-0.82 3.33,-3.08 6.15,-6.64 7.8,-10.94 0.53,-1.39 1.2,-3.74 1.2,-5.57 0,-1.94 -0.06,-2.68 -0.48,-4.22 -1.6,-5.88 -8.5,-9.93 -14.75,-7.98 -3.87,1.2 -4.68,2.91 -5.77,3.65 -0.61,-0.41 -1.26,-1.37 -3.02,-2.43 -1.19,-0.72 -2.53,-1.24 -4.05,-1.51 -3.63,-0.63 -6.74,0.52 -8.8,1.92 -0.94,0.64 -2.08,1.78 -2.76,2.69 -1.82,2.43 -2.78,5.58 -2.32,8.71 0.2,1.34 0.56,3.58 1.09,4.51zm8.85 12.11c0.39,0 0.14,-0.04 0.23,0.15l-0.23 -0.15zm22.02 0.02c0,-0.17 -0.05,-0.13 0.11,-0.13l-0.11 0.13z"/>
   </g>
  </g>
  <polygon class="fil1" points="-0,0 75.83,0 75.83,75.73 -0,75.73 "/>
 </g>
</svg>
