<svg height="77" viewBox="0 0 260 77" width="260" xmlns="http://www.w3.org/2000/svg"><g fill="none"><path d="m250.629225 77h-241.523975c-5.02425 0-9.10525-4.0964-9.10525-9.111025v-58.7895c0-5.018475 4.08485-9.099475 9.10525-9.099475h241.523975c5.01655 0 9.245775 4.081 9.245775 9.09755v58.7895c0 5.01655-4.229225 9.11295-9.245775 9.11295z" fill="#a6a6a6"/><path d="m258.013525 67.8909c0 4.0733-3.301375 7.37275-7.382375 7.37275h-241.52975c-4.07715 0-7.38815-3.29945-7.38815-7.37275v-58.795275c0-4.071375 3.311-7.382375 7.392-7.382375h241.523975c4.081 0 7.38045 3.311 7.38045 7.382375z" fill="#000"/><g fill="#fff"><path d="m57.9964 38.0842c-.05775-6.204275 5.082-9.22075 5.313-9.3632-2.90675-4.240775-7.4151-4.8202-8.999375-4.8664-3.786475-.398475-7.459375 2.265725-9.388225 2.265725-1.96735 0-4.937625-2.22915-8.1389-2.1637-4.1195.063525-7.97335 2.4486-10.087 6.1523-4.36205 7.551775-1.1088 18.6494 3.070375 24.7555 2.09055 2.9876 4.533375 6.32555 7.7308 6.208125 3.1262-.128975 4.29275-1.9943 8.0696-1.9943 3.740275 0 4.837525 1.996225 8.098475 1.92115 3.355275-.0539 5.467-3.003 7.48825-6.019475 2.41395-3.4265 3.38415-6.7991 3.42265-6.97235-.077-.02695-6.519975-2.48325-6.5835-9.92145zm-6.16-18.24515c1.68245-2.104025 2.8336-4.9665 2.51405-7.87325-2.435125.109725-5.480475 1.6863-7.23415 3.744125-1.55155 1.815275-2.93755 4.787475-2.5795 7.5845 2.7335.202125 5.544-1.38215 7.2996-3.45345zm51.430225 40.80615h-4.36975l-2.396625-7.52675h-8.3237l-2.281125 7.52675h-4.25425l8.2467-25.6179h5.09355l8.287125 25.6179zm-7.48825-10.68375-2.165625-6.68745c-.231-.683375-.65835-2.29075-1.28975-4.825975h-.077c-.2541 1.08955-.660275 2.69885-1.218525 4.825975l-2.127125 6.689375h6.878025zm28.695975 1.22045c0 3.1416-.847 5.62485-2.546775 7.44975-1.52075 1.62085-3.4111 2.431275-5.665275 2.431275-2.4332 0-4.1811-.872025-5.245625-2.618h-.077v9.72895h-4.102175v-19.9199c0-1.97505-.051975-4.004-.154-6.083h3.6113l.231 2.92985h.077c1.36675-2.207975 3.44575-3.311 6.231225-3.311 2.1791 0 3.998225.8624 5.453525 2.585275 1.45915 1.7248 2.1868 3.99245 2.1868 6.804875zm-4.1811.15015c0-1.79795-.40425-3.2802-1.2166-4.44675-.8855-1.2166-2.079-1.8249-3.5728-1.8249-1.01255 0-1.9327.3388-2.75275 1.006775-.82775.67375-1.36675 1.5554-1.617 2.64495-.12705.5082-.1925.924-.1925 1.25125v3.08c0 1.34365.413875 2.477475 1.237775 3.4034s1.8942 1.386 3.2109 1.386c1.545775 0 2.7489-.59675 3.609375-1.784475.8624-1.1935 1.2936-2.762375 1.2936-4.71625zm25.42925-.15015c0 3.1416-.85085 5.62485-2.550625 7.44975-1.52075 1.62085-3.40725 2.431275-5.6595 2.431275-2.435125 0-4.183025-.872025-5.245625-2.618h-.077v9.72895h-4.1041v-19.9199c0-1.97505-.051975-4.004-.154-6.083h3.6113l.231 2.92985h.077c1.36675-2.207975 3.4419-3.311 6.231225-3.311 2.1791 0 3.998225.8624 5.457375 2.585275 1.453375 1.7248 2.18295 3.99245 2.18295 6.804875zm-4.183025.15015c0-1.79795-.40425-3.2802-1.218525-4.44675-.8855-1.2166-2.07515-1.8249-3.570875-1.8249-1.0164 0-1.934625.3388-2.758525 1.006775-.8239.67375-1.360975 1.5554-1.61315 2.64495-.12705.5082-.1925.924-.1925 1.25125v3.08c0 1.34365.41195 2.477475 1.232 3.4034.8239.924 1.8942 1.386 3.21475 1.386 1.545775 0 2.7489-.59675 3.609375-1.784475.8624-1.1935 1.2936-2.762375 1.2936-4.71625zm27.937525 2.12905c0 2.1791-.75845 3.952025-2.277275 5.3207-1.668975 1.495725-3.99245 2.242625-6.978125 2.242625-2.7566 0-4.9665-.529375-6.64125-1.5939l.952875-3.420725c1.8018 1.08955 3.778775 1.63625 5.93285 1.63625 1.54385 0 2.746975-.35035 3.6113-1.0472.860475-.693 1.28975-1.630475 1.28975-2.797025 0-1.0395-.3542-1.915375-1.064525-2.6257-.706475-.71225-1.8865-1.3706-3.5343-1.98275-4.48525-1.6709-6.72595-4.1195-6.72595-7.343875 0-2.10595.7854-3.83075 2.358125-5.17825 1.56695-1.34365 3.6575-2.015475 6.27165-2.015475 2.32925 0 4.267725.4081 5.8135 1.218525l-1.026025 3.34565c-1.44375-.783475-3.07615-1.17425-4.902975-1.17425-1.44375 0-2.5718.3542-3.3803 1.0626-.683375.63525-1.026025 1.40525-1.026025 2.319625 0 1.01255.390775 1.848 1.17425 2.508275.6853.6083 1.925 1.26665 3.728725 1.976975 2.204125.8855 3.82305 1.925 4.864475 3.11465 1.0395 1.1858 1.55925 2.669975 1.55925 4.440975zm13.5674-8.2082h-4.52375v8.9705c0 2.2792.79695 3.4188 2.3947 3.4188.7315 0 1.341725-.063525 1.822975-.1925l.11165 3.1185c-.8085.302225-1.873025.4543-3.19165.4543-1.62085 0-2.8875-.494725-3.801875-1.48225-.910525-.98945-1.36675-2.6488-1.36675-4.979975v-9.311225h-2.695v-3.08h2.695v-3.3803l4.029025-1.218525v4.60075h4.52375v3.08zm20.40885 6.004075c0 2.839375-.8085 5.17055-2.431275 6.993525-1.699775 1.876875-3.955875 2.8105-6.7683 2.8105-2.708475 0-4.8664-.89705-6.4757-2.695s-2.41395-4.067525-2.41395-6.80295c0-2.862475.82775-5.207125 2.489025-7.0301 1.6555-1.8249 3.894275-2.73735 6.7067-2.73735 2.708475 0 4.8895.898975 6.535375 2.69885 1.57465 1.745975 2.36005 4.00015 2.36005 6.762525zm-4.25425.13475c0-1.70555-.36575-3.166625-1.103025-4.38515-.860475-1.476475-2.09055-2.21375-3.68445-2.21375-1.649725 0-2.9029.7392-3.763375 2.21375-.737275 1.218525-1.1011 2.7027-1.1011 4.4583 0 1.703625.36575 3.1647 1.1011 4.3813.8855 1.47455 2.127125 2.2099 3.7268 2.2099 1.56695 0 2.797025-.75075 3.68445-2.2484.756525-1.241625 1.13575-2.7181 1.13575-4.4198zm17.5945-5.60945c-.40425-.077-.837375-.1155-1.28975-.1155-1.44375 0-2.56025.5467-3.3495 1.63625-.68145.9625-1.0241 2.181025-1.0241 3.6498v9.69045h-4.10025l.0385-12.65495c0-2.12905-.0539-4.067525-.154-5.8135h3.5728l.15015 3.532375h.1155c.4312-1.21275 1.1165-2.1945 2.050125-2.926.914375-.660275 1.9019-.98945 2.9645-.98945.38115 0 .7238.028875 1.02795.077v3.913525zm18.3568 4.752825c0 .73535-.048125 1.3552-.15015 1.861475h-12.3123c.048125 1.822975.64295 3.2186 1.7864 4.1811 1.0395.860475 2.3793 1.28975 4.0271 1.28975 1.822975 0 3.48425-.28875 4.9819-.872025l.64295 2.849c-1.7479.760375-3.8115 1.1396-6.192725 1.1396-2.8644 0-5.1128-.84315-6.74905-2.527525-1.630475-1.6863-2.4486-3.94625-2.4486-6.785625 0-2.785475.760375-5.1051 2.28305-6.955025 1.5939-1.97505 3.747975-2.9645 6.458375-2.9645 2.66035 0 4.67775.98945 6.0445 2.9645 1.083775 1.568875 1.62855 3.509275 1.62855 5.8135zm-3.913525-1.064525c.02695-1.218525-.240625-2.2715-.79695-3.157-.71225-1.141525-1.803725-1.71325-3.2725-1.71325-1.341725 0-2.4332.55825-3.266725 1.67475-.683375.8855-1.08955 1.95195-1.21275 3.19165h8.547z"/><path d="m94.42125 19.26925c0 2.2638-.679525 3.96935-2.03665 5.114725-1.257025 1.05875-3.0415 1.5862-5.357275 1.5862-1.149225 0-2.130975-.048125-2.95295-.148225v-12.37775c1.072225-.17325 2.227225-.263725 3.474625-.263725 2.20605 0 3.86925.48125 4.98575 1.437975 1.257025 1.083775 1.8865 2.6334 1.8865 4.6508zm-2.127125.0539c0-1.468775-.38885-2.5949-1.16655-3.3803-.779625-.783475-1.915375-1.17425-3.4111-1.17425-.63525 0-1.17425.0385-1.6247.128975v9.4094c.25025.0385.702625.05775 1.3629.05775 1.54385 0 2.7335-.4312 3.574725-1.28975s1.260875-2.1098 1.260875-3.75375zm13.407625 1.923075c0 1.395625-.4004 2.541-1.19735 3.436125-.83545.924-1.94425 1.38215-3.324475 1.38215-1.32825 0-2.39085-.44275-3.182025-1.32825-.78925-.88165-1.183875-1.996225-1.183875-3.339875 0-1.40525.40425-2.56025 1.222375-3.45345s1.91345-1.341725 3.2956-1.341725c1.32825 0 2.400475.44275 3.2109 1.3244.77.860475 1.155 1.969275 1.155 3.324475zm-2.0944.06545c0-.83545-.18095-1.553475-.539-2.15215-.4235-.7238-1.02795-1.0857-1.8095-1.0857-.81235 0-1.42835.3619-1.85185 1.0857-.3619.59675-.539 1.32825-.539 2.19065 0 .837375.179025 1.5554.539 2.156.436975.721875 1.045275 1.083775 1.82875 1.083775.77 0 1.376375-.36575 1.8095-1.10495.375375-.61215.5621-1.33595.5621-2.17525zm17.215275-4.525675-2.839375 9.072525h-1.848l-1.17425-3.940475c-.3003-.98175-.54285-1.9635-.7315-2.931775h-.0385c-.17325.99715-.4158 1.973125-.72765 2.931775l-1.25125 3.940475h-1.86725l-2.669975-9.072525h2.073225l1.026025 4.312c.25025 1.02025.452375 1.992375.616 2.912525h.0385c.148225-.75845.39655-1.7248.7469-2.893275l1.28975-4.33125h1.642025l1.232 4.23885c.3003 1.033725.54285 2.02895.7315 2.9876h.0539c.13475-.933625.34265-1.92885.616-2.9876l1.1011-4.23885h1.98275zm10.458525 9.072525h-2.0174v-5.1975c0-1.6016-.6083-2.4024-1.82875-2.4024-.59675 0-1.08185.21945-1.457225.660275-.371525.44275-.55825.9625-.55825 1.5554v5.3823h-2.02125v-6.47955c0-.79695-.0231-1.661275-.071225-2.59875h1.771l.09625 1.42065h.05775c.231-.44275.583275-.80465 1.04335-1.09725.5467-.336875 1.15885-.5082 1.82875-.5082.847 0 1.55155.27335 2.111725.821975.69685.67375 1.045275 1.67475 1.045275 3.00685v5.434275zm5.56325 0h-2.0174v-13.238225h2.0174zm11.87725-4.6123c0 1.395625-.398475 2.541-1.1935 3.436125-.837375.924-1.94425 1.38215-3.3264 1.38215-1.334025 0-2.3947-.44275-3.18395-1.32825-.78925-.88165-1.183875-1.996225-1.183875-3.339875 0-1.40525.4081-2.56025 1.2243-3.45345s1.91345-1.341725 3.29175-1.341725c1.33595 0 2.40625.44275 3.21475 1.3244.77.860475 1.15885 1.969275 1.15885 3.324475zm-2.0944.06545c0-.83545-.18095-1.553475-.539-2.15215-.4235-.7238-1.02795-1.0857-1.8095-1.0857-.81235 0-1.42835.3619-1.848 1.0857-.36575.59675-.54285 1.32825-.54285 2.19065 0 .837375.18095 1.5554.539 2.156.4389.721875 1.0472 1.083775 1.8326 1.083775.77 0 1.372525-.36575 1.8095-1.10495.37345-.61215.55825-1.33595.55825-2.17525zm11.858 4.54685h-1.8095l-.154-1.045275h-.0539c-.61985.833525-1.5015 1.25125-2.650725 1.25125-.856625 0-1.549625-.275275-2.0713-.821975-.475475-.49665-.71225-1.1165-.71225-1.848 0-1.1088.462-1.953875 1.391775-2.541.92785-.583275 2.233-.8701 3.913525-.856625v-.1694c0-1.1935-.62755-1.79025-1.8865-1.79025-.8932 0-1.68245.2233-2.3639.6699l-.410025-1.3244c.84315-.51975 1.8865-.783475 3.112725-.783475 2.3716 0 3.56125 1.25125 3.56125 3.75375v3.3418c0 .90475.044275 1.626625.1309 2.161775zm-2.0944-3.1185v-1.399475c-2.2253-.0385-3.33795.571725-3.33795 1.82875 0 .47355.12705.82775.385 1.064525.2618.23485.5929.352275.987525.352275.44275 0 .85855-.140525 1.23585-.41965.379225-.28105.61215-.63525.698775-1.07415.01925-.09625.032725-.217525.032725-.3542zm13.557775 3.1185h-1.79025l-.09625-1.457225h-.0539c-.571725 1.1088-1.545775 1.6632-2.91445 1.6632-1.0934 0-2.002-.429275-2.7258-1.28975s-1.08185-1.9712-1.08185-3.339875c0-1.468775.390775-2.6565 1.17425-3.567025.7623-.847 1.694-1.2705 2.8028-1.2705 1.22045 0 2.073225.410025 2.56025 1.232h.0385v-5.20905h2.0174v10.793475c0 .8855.0231 1.69785.071225 2.44475zm-2.088625-3.8269v-1.51305c0-.263725-.01925-.475475-.05775-.63525-.1155-.487025-.35805-.895125-.7315-1.2243-.37345-.32725-.82775-.494725-1.3475-.494725-.75075 0-1.341725.298375-1.77485.89705-.429275.59675-.6468 1.3629-.6468 2.296525 0 .89705.205975 1.6247.61985 2.184875.436975.59675 1.026025.89705 1.7633.89705.6622 0 1.1935-.25025 1.5939-.7469.38885-.462.5775-1.014475.5775-1.661275zm19.3424-.7854c0 1.395625-.398475 2.541-1.1935 3.436125-.837375.924-1.94425 1.38215-3.3264 1.38215-1.32825 0-2.39085-.44275-3.18395-1.32825-.78925-.88165-1.183875-1.996225-1.183875-3.339875 0-1.40525.4081-2.56025 1.2243-3.45345s1.91345-1.341725 3.297525-1.341725c1.32825 0 2.400475.44275 3.208975 1.3244.77.860475 1.155 1.969275 1.155 3.324475zm-2.09055.06545c0-.83545-.18095-1.553475-.539-2.15215-.42735-.7238-1.02795-1.0857-1.81335-1.0857-.8085 0-1.4245.3619-1.848 1.0857-.36575.59675-.54285 1.32825-.54285 2.19065 0 .837375.18095 1.5554.539 2.156.4389.721875 1.0472 1.083775 1.8326 1.083775.77 0 1.376375-.36575 1.8095-1.10495.37345-.61215.5621-1.33595.5621-2.17525zm12.937925 4.54685h-2.015475v-5.1975c0-1.6016-.6083-2.4024-1.82875-2.4024-.6006 0-1.083775.21945-1.457225.660275s-.5621.9625-.5621 1.5554v5.3823h-2.02125v-6.47955c0-.79695-.01925-1.661275-.0693-2.59875h1.771l.09625 1.42065h.0539c.236775-.44275.587125-.80465 1.045275-1.09725.548625-.336875 1.15885-.5082 1.82875-.5082.847 0 1.55155.27335 2.111725.821975.698775.67375 1.045275 1.67475 1.045275 3.00685v5.434275zm13.577025-7.563325h-2.22145v4.40825c0 1.12035.394625 1.680525 1.17425 1.680525.36575 0 .664125-.0308.9009-.09625l.051975 1.5323c-.398475.15015-.924.225225-1.56695.225225-.79695 0-1.4168-.24255-1.86725-.72765-.448525-.4851-.67375-1.3013-.67375-2.44475v-4.579575h-1.3244v-1.507275h1.32825v-1.665125l1.97505-.59675v2.258025h2.223375zm10.6799 7.563325h-2.02125v-5.159c0-1.626625-.606375-2.4409-1.8249-2.4409-.93555 0-1.57465.471625-1.925 1.414875-.05775.198275-.09625.44275-.09625.725725v5.457375h-2.01355v-13.2363h2.015475v5.467h.0385c.63525-.9933 1.545775-1.48995 2.7258-1.48995.83545 0 1.526525.27335 2.07515.821975.6853.68145 1.02795 1.69785 1.02795 3.0415v5.395775zm11.016775-4.9665c0 .3619-.02695.66605-.077.914375h-6.04835c.02695.89705.3157 1.5785.875875 2.053975.51205.4235 1.17425.63525 1.98275.63525.8932 0 1.7094-.14245 2.44475-.429275l.3157 1.4014c-.860475.37345-1.873025.55825-3.04535.55825-1.40525 0-2.512125-.41195-3.311-1.2397-.8085-.82775-1.20505-1.938475-1.20505-3.33025 0-1.3706.371525-2.5102 1.12035-3.4188.78155-.9702 1.838375-1.4553 3.1724-1.4553 1.30515 0 2.296525.4851 2.9645 1.4553.54285.77.8085 1.722875.8085 2.854775zm-1.925-.51975c.0154-.6006-.1155-1.1165-.390775-1.55155-.35035-.55825-.8855-.841225-1.60545-.841225-.65835 0-1.1935.27335-1.60545.821975-.33495.436975-.533225.95865-.59675 1.568875h4.1965z"/></g></g></svg>