<svg height="30" viewBox="0 0 102 30" width="102" xmlns="http://www.w3.org/2000/svg" xmlns:xlink="http://www.w3.org/1999/xlink"><linearGradient id="a" x1="61.033977%" x2="26.520281%" y1="4.962106%" y2="71.902673%"><stop offset="0" stop-color="#00a0ff"/><stop offset=".007" stop-color="#00a1ff"/><stop offset=".26" stop-color="#00beff"/><stop offset=".512" stop-color="#00d2ff"/><stop offset=".76" stop-color="#00dfff"/><stop offset="1" stop-color="#00e3ff"/></linearGradient><linearGradient id="b" x1="107.587496%" x2="-130.460661%" y1="49.976619%" y2="49.976619%"><stop offset="0" stop-color="#ffe000"/><stop offset=".409" stop-color="#ffbd00"/><stop offset=".775" stop-color="#ffa500"/><stop offset="1" stop-color="#ff9c00"/></linearGradient><linearGradient id="c" x1="86.241611%" x2="-50.131831%" y1="30.901107%" y2="136.011785%"><stop offset="0" stop-color="#ff3a44"/><stop offset="1" stop-color="#c31162"/></linearGradient><linearGradient id="d" x1="-18.805058%" x2="42.09864%" y1="-11.864038%" y2="35.074302%"><stop offset="0" stop-color="#32a071"/><stop offset=".069" stop-color="#2da771"/><stop offset=".476" stop-color="#15cf74"/><stop offset=".801" stop-color="#06e775"/><stop offset="1" stop-color="#00f076"/></linearGradient><g fill="none"><path d="m97.5 30h-93.75c-2.0625 0-3.75-1.6875-3.75-3.75v-22.5c0-2.0625 1.6875-3.75 3.75-3.75h93.75c2.0625 0 3.75 1.6875 3.75 3.75v22.5c0 2.0625-1.6875 3.75-3.75 3.75z" fill="#000"/><path d="m97.5.6c1.737 0 3.15 1.413 3.15 3.15v22.5c0 1.737-1.413 3.15-3.15 3.15h-93.75c-1.737 0-3.15-1.413-3.15-3.15v-22.5c0-1.737 1.413-3.15 3.15-3.15zm0-.6h-93.75c-2.0625 0-3.75 1.6875-3.75 3.75v22.5c0 2.0625 1.6875 3.75 3.75 3.75h93.75c2.0625 0 3.75-1.6875 3.75-3.75v-22.5c0-2.0625-1.6875-3.75-3.75-3.75z" fill="#a6a6a6"/><path d="m35.5635 7.68225c0 .6285-.186 1.1295-.55875 1.50225-.423.444-.975.666-1.653.666-.65025 0-1.20225-.225-1.6575-.675-.45375-.45-.681-1.0095-.681-1.6755 0-.6675.22725-1.22475.6825-1.67475.45375-.45 1.005-.675 1.65525-.675.3225 0 .63.06225.9225.1875.2925.126.52875.2925.705.5025l-.396.3975c-.2985-.357-.70875-.53475-1.23225-.53475-.47475 0-.885.165-1.23.4995-.345.333-.5175.765-.5175 1.2975s.1725.9645.5175 1.2975c.345.33375.75525.50025 1.23.50025.5025 0 .921-.168 1.25625-.5025.2175-.2175.3435-.522.37725-.912h-1.635v-.54h2.181c.0225.11775.0315.231.0315.33975zm3.4575-1.8795h-2.04975v1.42725h1.848v.54h-1.84875v1.42725h2.04975v.55275h-2.62725v-4.5h2.62725v.55275zm2.439 3.94725h-.57975v-3.94725h-1.25775v-.55275h3.093v.55275h-1.2555zm3.4935 0v-4.5h.5775v4.5zm3.1425 0h-.5775v-3.94725h-1.2585v-.55275h3.093v.55275h-1.257zm7.1115-.58125c-.4425.4545-.993.6825-1.65.6825-.6585 0-1.2075-.228-1.65-.6825s-.663-1.011-.663-1.66875.2205-1.215.663-1.66875c.4425-.4545.9915-.6825 1.65-.6825.6525 0 1.20225.22875 1.64625.6855.444.456.666 1.0125.666 1.665 0 .65775-.22125 1.215-.663 1.66875zm-2.8725-.37725c.333.3375.74025.50625 1.2225.50625.4815 0 .8895-.16875 1.2225-.50625.33225-.3375.4995-.768.4995-1.2915s-.16725-.954-.50025-1.2915-.741-.5055-1.2225-.5055c-.48225 0-.8895.168-1.2225.5055s-.50025.768-.50025 1.2915.16725.95475.4995 1.2915zm4.34625.9585v-4.5h.705l2.18625 3.501h.02475l-.02475-.86775v-2.63325h.5775v4.5h-.603l-2.2875-3.6705h-.0255l.0255.86775v2.80275h-.5775z" fill="#fff" stroke="#fff" stroke-width=".2"/><path d="m51.102 16.314c-1.764 0-3.2025 1.341-3.2025 3.18975 0 1.8375 1.4385 3.18975 3.2025 3.18975s3.2025-1.353 3.2025-3.18975c0-1.84875-1.4385-3.18975-3.2025-3.18975zm0 5.1225c-.9675 0-1.8-.79725-1.8-1.93275 0-1.1475.8325-1.9335 1.8-1.9335s1.8.78525 1.8 1.9335c0 1.1355-.8325 1.9335-1.8 1.9335zm-6.9855-5.1225c-1.764 0-3.2025 1.341-3.2025 3.18975 0 1.8375 1.4385 3.18975 3.2025 3.18975s3.2025-1.353 3.2025-3.18975c0-1.84875-1.4385-3.18975-3.2025-3.18975zm0 5.1225c-.966 0-1.8-.79725-1.8-1.93275 0-1.1475.834-1.9335 1.8-1.9335.9675 0 1.8.78525 1.8 1.9335 0 1.1355-.8325 1.9335-1.8 1.9335zm-8.3085-4.14375v1.353h3.23775c-.096.762-.3495 1.31775-.7365 1.70475-.471.471-1.2075.99-2.5005.99-1.995 0-3.55275-1.6065-3.55275-3.6s1.5585-3.6 3.55275-3.6c1.0755 0 1.86.42225 2.4405.966l.95475-.954c-.81-.7725-1.88475-1.365-3.3945-1.365-2.73 0-5.0265 2.223-5.0265 4.95375 0 2.73 2.295 4.95375 5.0265 4.95375 1.47375 0 2.58525-.483 3.45525-1.38975.89475-.894 1.173-2.15025 1.173-3.165 0-.315-.024-.6045-.07275-.846h-4.55475zm33.981 1.05c-.26625-.7125-1.0755-2.02875-2.73-2.02875-1.644 0-3.00975 1.293-3.00975 3.18975 0 1.788 1.353 3.18975 3.165 3.18975 1.4625 0 2.30775-.894 2.65875-1.41375l-1.0875-.72525c-.363.5325-.858.88275-1.57125.88275-.7125 0-1.22025-.327-1.5465-.9675l4.26525-1.7625-.14475-.36375zm-4.35 1.065c-.036-1.233.95475-1.8615 1.66725-1.8615.555 0 1.0275.2775 1.185.6765zm-3.468 3.09225h1.4025v-9.375h-1.4025zm-2.295-5.4735h-.04875c-.315-.375-.918-.7125-1.68-.7125-1.5945 0-3.05625 1.4025-3.05625 3.2025 0 1.78725 1.4625 3.177 3.057 3.177.76125 0 1.365-.3375 1.68-.72525h.04725v.4605c0 1.22025-.6525 1.87275-1.7025 1.87275-.85875 0-1.3905-.615-1.608-1.1355l-1.22025.50775c.35025.846 1.281 1.88475 2.8275 1.88475 1.6425 0 3.033-.9675 3.033-3.3225v-5.7285h-1.32975v.519zm-1.60725 4.41c-.9675 0-1.776-.81-1.776-1.92 0-1.125.81-1.94625 1.776-1.94625.95475 0 1.7025.822 1.7025 1.9455 0 1.11225-.74775 1.92225-1.7025 1.92225zm18.285-8.31225h-3.3525v9.37575h1.39875v-3.552h1.9545c1.551 0 3.075-1.12275 3.075-2.91225s-1.524-2.91-3.075-2.91zm.0375 4.518h-1.99125v-3.21225h1.9905c1.04625 0 1.64025.8655 1.64025 1.605 0 .7275-.5925 1.608-1.6395 1.608zm8.6475-1.34625c-1.0125 0-2.0625.4455-2.4975 1.43475l1.2435.5175c.2655-.5175.75975-.687 1.27875-.687.72375 0 1.4595.435 1.4715 1.2075v.09525c-.2535-.14475-.7965-.3615-1.4595-.3615-1.33875 0-2.70225.735-2.70225 2.1105 0 1.25475 1.09875 2.0625 2.32875 2.0625.94125 0 1.4595-.4215 1.785-.9165h.04875v.72375h1.35v-3.59475c0-1.665-1.24125-2.5935-2.8455-2.5935zm-.16875 5.1375c-.4575 0-1.09725-.22875-1.09725-.795 0-.7245.795-1.002 1.4835-1.002.615 0 .9045.13275 1.27875.3135-.10875.8685-.8565 1.4835-1.665 1.4835zm7.93725-4.9335-1.605 4.065h-.04725l-1.665-4.065h-1.5075l2.4975 5.68125-1.425 3.1605h1.46025l3.8475-8.841h-1.5555zm-12.60525 6h1.3995v-9.375h-1.3995z" fill="#fff"/><g transform="translate(6.75 5.25)"><path d="m1.07625.4035c-.2175.231-.34725.5895-.34725 1.05375v16.58775c0 .465.129.822.34725 1.053l.0555.054 9.291-9.2925v-.2175l-9.2925-9.2925-.05475.05475z" fill="url(#a)"/><path d="m13.521 12.96-3.0975-3.09975v-.21825l3.0975-3.0975.0705.03975 3.66975 2.085c1.04775.5955 1.04775 1.56975 0 2.16525l-3.66975 2.085z" fill="url(#b)"/><path d="m13.5915 12.91875-3.168-3.16875-9.34725 9.34875c.345.366.915.411 1.5585.045l10.9575-6.225" fill="url(#c)"/><path d="m13.5915 6.58275-10.9575-6.225c-.642-.36525-1.212-.32025-1.55775.045l9.34725 9.348 3.168-3.16725z" fill="url(#d)"/><path d="m13.5225 12.849-10.8885 6.186c-.609.345-1.15275.3225-1.50225.0075l-.05625.05625.0555.054c.3495.315.8925.3375 1.50225-.009l10.9575-6.225-.0705-.06975z" fill="#000" opacity=".2"/><path d="m1.07625 18.9885c-.2175-.23025-.34725-.58875-.34725-1.05375v.11025c0 .465.129.82275.34725 1.05375l.05625-.05625zm16.185-8.2635-3.73875 2.1225.069.06975 3.66975-2.085c.5235-.29775.786-.69.786-1.083-.045.35625-.31125.705-.786.975z" fill="#000" opacity=".12"/><path d="m2.63475.46725 14.6265 8.31c.47475.27.7425.618.786.9735 0-.3915-.2625-.7845-.786-1.08225l-14.6265-8.31075c-1.04775-.5955-1.905-.1005-1.905 1.0995v.11025c0-1.2.85725-1.695 1.905-1.10025z" fill="#fff" opacity=".25"/></g></g></svg>