<svg height="30" viewBox="0 0 102 30" width="102" xmlns="http://www.w3.org/2000/svg"><g fill="none"><path d="m97.64775 30h-94.10025c-1.9575 0-3.5475-1.596-3.5475-3.54975v-22.905c0-1.95525 1.5915-3.54525 3.5475-3.54525h94.10025c1.9545 0 3.60225 1.59 3.60225 3.5445v22.905c0 1.9545-1.64775 3.5505-3.60225 3.5505z" fill="#a6a6a6"/><path d="m100.52475 26.451c0 1.587-1.28625 2.8725-2.87625 2.8725h-94.1025c-1.5885 0-2.8785-1.2855-2.8785-2.8725v-22.90725c0-1.58625 1.29-2.87625 2.88-2.87625h94.10025c1.59 0 2.8755 1.29 2.8755 2.87625z" fill="#000"/><g fill="#fff"><path d="m22.596 14.838c-.0225-2.41725 1.98-3.5925 2.07-3.648-1.1325-1.65225-2.889-1.878-3.50625-1.896-1.47525-.15525-2.90625.88275-3.65775.88275-.7665 0-1.92375-.8685-3.171-.843-1.605.02475-3.1065.954-3.93 2.397-1.6995 2.94225-.432 7.266 1.19625 9.645.8145 1.164 1.76625 2.4645 3.012 2.41875 1.218-.05025 1.6725-.777 3.144-.777 1.45725 0 1.88475.77775 3.15525.7485 1.30725-.021 2.13-1.17 2.9175-2.34525.9405-1.335 1.3185-2.649 1.3335-2.7165-.03-.0105-2.54025-.9675-2.565-3.8655zm-2.4-7.1085c.6555-.81975 1.104-1.935.9795-3.0675-.94875.04275-2.13525.657-2.8185 1.45875-.6045.70725-1.1445 1.86525-1.005 2.955 1.065.07875 2.16-.5385 2.844-1.3455zm20.03775 15.8985h-1.7025l-.93375-2.9325h-3.243l-.88875 2.9325h-1.6575l3.213-9.981h1.9845l3.22875 9.981zm-2.9175-4.1625-.84375-2.6055c-.09-.26625-.2565-.8925-.5025-1.88025h-.03c-.099.4245-.25725 1.0515-.47475 1.88025l-.82875 2.60625h2.67975zm11.18025.4755c0 1.224-.33 2.1915-.99225 2.9025-.5925.6315-1.329.94725-2.20725.94725-.948 0-1.629-.33975-2.04375-1.02h-.03v3.7905h-1.59825v-7.761c0-.7695-.02025-1.56-.06-2.37h1.407l.09 1.1415h.03c.5325-.86025 1.3425-1.29 2.42775-1.29.849 0 1.55775.336 2.12475 1.00725.5685.672.852 1.5555.852 2.65125zm-1.629.0585c0-.7005-.1575-1.278-.474-1.7325-.345-.474-.81-.711-1.392-.711-.3945 0-.753.132-1.0725.39225-.3225.2625-.5325.606-.63 1.0305-.0495.198-.075.36-.075.4875v1.2c0 .5235.16125.96525.48225 1.326s.738.54 1.251.54c.60225 0 1.071-.2325 1.40625-.69525.336-.465.504-1.07625.504-1.8375zm9.9075-.0585c0 1.224-.3315 2.1915-.99375 2.9025-.5925.6315-1.3275.94725-2.205.94725-.94875 0-1.62975-.33975-2.04375-1.02h-.03v3.7905h-1.599v-7.761c0-.7695-.02025-1.56-.06-2.37h1.407l.09 1.1415h.03c.5325-.86025 1.341-1.29 2.42775-1.29.849 0 1.55775.336 2.12625 1.00725.56625.672.8505 1.5555.8505 2.65125zm-1.62975.0585c0-.7005-.1575-1.278-.47475-1.7325-.345-.474-.8085-.711-1.39125-.711-.396 0-.75375.132-1.07475.39225-.321.2625-.53025.606-.6285 1.0305-.0495.198-.075.36-.075.4875v1.2c0 .5235.1605.96525.48 1.326.321.36.738.54 1.2525.54.60225 0 1.071-.2325 1.40625-.69525.336-.465.504-1.07625.504-1.8375zm10.88475.8295c0 .849-.2955 1.53975-.88725 2.073-.65025.58275-1.5555.87375-2.71875.87375-1.074 0-1.935-.20625-2.5875-.621l.37125-1.33275c.702.4245 1.47225.6375 2.3115.6375.6015 0 1.07025-.1365 1.407-.408.33525-.27.5025-.63525.5025-1.08975 0-.405-.138-.74625-.41475-1.023-.27525-.2775-.735-.534-1.377-.7725-1.7475-.651-2.6205-1.605-2.6205-2.86125 0-.8205.306-1.4925.91875-2.0175.6105-.5235 1.425-.78525 2.4435-.78525.9075 0 1.66275.159 2.265.47475l-.39975 1.3035c-.5625-.30525-1.1985-.4575-1.91025-.4575-.5625 0-1.002.138-1.317.414-.26625.2475-.39975.5475-.39975.90375 0 .3945.15225.72.4575.97725.267.237.75.4935 1.45275.77025.85875.345 1.4895.75 1.89525 1.2135.405.462.6075 1.04025.6075 1.73025zm5.286-3.198h-1.7625v3.495c0 .888.3105 1.332.933 1.332.285 0 .52275-.02475.71025-.075l.0435 1.215c-.315.11775-.72975.177-1.2435.177-.6315 0-1.125-.19275-1.48125-.5775-.35475-.3855-.5325-1.032-.5325-1.94025v-3.62775h-1.05v-1.2h1.05v-1.317l1.56975-.47475v1.7925h1.7625v1.2zm7.9515 2.33925c0 1.10625-.315 2.0145-.94725 2.72475-.66225.73125-1.54125 1.095-2.637 1.095-1.05525 0-1.896-.3495-2.523-1.05s-.9405-1.58475-.9405-2.6505c0-1.11525.3225-2.02875.96975-2.739.645-.711 1.51725-1.0665 2.613-1.0665 1.05525 0 1.905.35025 2.54625 1.0515.6135.68025.9195 1.5585.9195 2.63475zm-1.6575.0525c0-.6645-.1425-1.23375-.42975-1.7085-.33525-.57525-.8145-.8625-1.4355-.8625-.64275 0-1.131.288-1.46625.8625-.28725.47475-.429 1.053-.429 1.737 0 .66375.1425 1.233.429 1.707.345.5745.82875.861 1.452.861.6105 0 1.08975-.2925 1.4355-.876.29475-.48375.4425-1.059.4425-1.722zm6.855-2.1855c-.1575-.03-.32625-.045-.5025-.045-.5625 0-.9975.213-1.305.6375-.2655.375-.399.84975-.399 1.422v3.7755h-1.5975l.015-4.9305c0-.8295-.021-1.58475-.06-2.265h1.392l.0585 1.37625h.045c.168-.4725.435-.855.79875-1.14.35625-.25725.741-.3855 1.155-.3855.1485 0 .282.01125.4005.03v1.52475zm7.152 1.85175c0 .2865-.01875.528-.0585.72525h-4.797c.01875.71025.2505 1.254.696 1.629.405.33525.927.5025 1.569.5025.71025 0 1.3575-.1125 1.941-.33975l.2505 1.11c-.681.29625-1.485.444-2.41275.444-1.116 0-1.992-.3285-2.6295-.98475-.63525-.657-.954-1.5375-.954-2.64375 0-1.08525.29625-1.989.8895-2.70975.621-.7695 1.46025-1.155 2.51625-1.155 1.0365 0 1.8225.3855 2.355 1.155.42225.61125.6345 1.36725.6345 2.265zm-1.52475-.41475c.0105-.47475-.09375-.885-.3105-1.23-.2775-.44475-.70275-.6675-1.275-.6675-.52275 0-.948.2175-1.27275.6525-.26625.345-.4245.7605-.4725 1.2435h3.33z"/><path d="m36.7875 7.5075c0 .882-.26475 1.5465-.7935 1.99275-.48975.4125-1.185.618-2.08725.618-.44775 0-.83025-.01875-1.1505-.05775v-4.8225c.41775-.0675.86775-.10275 1.35375-.10275.8595 0 1.5075.1875 1.9425.56025.48975.42225.735 1.026.735 1.812zm-.82875.021c0-.57225-.1515-1.011-.4545-1.317-.30375-.30525-.74625-.4575-1.329-.4575-.2475 0-.4575.015-.633.05025v3.666c.0975.015.27375.0225.531.0225.6015 0 1.065-.168 1.39275-.5025s.49125-.822.49125-1.4625zm5.22375.74925c0 .54375-.156.99-.4665 1.33875-.3255.36-.7575.5385-1.29525.5385-.5175 0-.9315-.1725-1.23975-.5175-.3075-.3435-.46125-.77775-.46125-1.30125 0-.5475.1575-.9975.47625-1.3455s.7455-.52275 1.284-.52275c.5175 0 .93525.1725 1.251.516.3.33525.45.76725.45 1.29525zm-.816.0255c0-.3255-.0705-.60525-.21-.8385-.165-.282-.4005-.423-.705-.423-.3165 0-.5565.141-.7215.423-.141.2325-.21.5175-.21.8535 0 .32625.06975.606.21.84.17025.28125.40725.42225.7125.42225.3 0 .53625-.1425.705-.4305.14625-.2385.219-.5205.219-.8475zm6.70725-1.76325-1.10625 3.53475h-.72l-.4575-1.53525c-.117-.3825-.2115-.765-.285-1.14225h-.015c-.0675.3885-.162.76875-.2835 1.14225l-.4875 1.53525h-.7275l-1.04025-3.53475h.80775l.39975 1.68c.0975.3975.17625.77625.24 1.13475h.015c.05775-.2955.1545-.672.291-1.12725l.5025-1.6875h.63975l.48 1.6515c.117.40275.2115.7905.285 1.164h.021c.0525-.36375.1335-.7515.24-1.164l.429-1.6515h.7725zm4.07475 3.53475h-.786v-2.025c0-.624-.237-.936-.7125-.936-.2325 0-.4215.0855-.56775.25725-.14475.1725-.2175.375-.2175.606v2.097h-.7875v-2.5245c0-.3105-.009-.64725-.02775-1.0125h.69l.0375.5535h.0225c.09-.1725.22725-.3135.4065-.4275.213-.13125.4515-.198.7125-.198.33 0 .6045.1065.82275.32025.2715.2625.40725.6525.40725 1.1715v2.11725zm2.1675 0h-.786v-5.15775h.786zm4.6275-1.797c0 .54375-.15525.99-.465 1.33875-.32625.36-.7575.5385-1.296.5385-.51975 0-.933-.1725-1.2405-.5175-.3075-.3435-.46125-.77775-.46125-1.30125 0-.5475.159-.9975.477-1.3455s.7455-.52275 1.2825-.52275c.5205 0 .9375.1725 1.2525.516.3.33525.4515.76725.4515 1.29525zm-.816.0255c0-.3255-.0705-.60525-.21-.8385-.165-.282-.4005-.423-.705-.423-.3165 0-.5565.141-.72.423-.1425.2325-.2115.5175-.2115.8535 0 .32625.0705.606.21.84.171.28125.408.42225.714.42225.3 0 .53475-.1425.705-.4305.1455-.2385.2175-.5205.2175-.8475zm4.62 1.7715h-.705l-.06-.40725h-.021c-.2415.32475-.585.4875-1.03275.4875-.33375 0-.60375-.10725-.807-.32025-.18525-.1935-.2775-.435-.2775-.72 0-.432.18-.76125.54225-.99.3615-.22725.87-.339 1.52475-.33375v-.066c0-.465-.2445-.6975-.735-.6975-.348 0-.6555.087-.921.261l-.15975-.516c.3285-.2025.735-.30525 1.21275-.30525.924 0 1.3875.4875 1.3875 1.4625v1.302c0 .3525.01725.63375.051.84225zm-.816-1.215v-.54525c-.867-.015-1.3005.22275-1.3005.7125 0 .1845.0495.3225.15.41475.102.0915.231.13725.38475.13725.1725 0 .3345-.05475.4815-.1635.14775-.1095.2385-.2475.27225-.4185.0075-.0375.01275-.08475.01275-.138zm5.28225 1.215h-.6975l-.0375-.56775h-.021c-.22275.432-.60225.648-1.1355.648-.426 0-.78-.16725-1.062-.5025s-.4215-.768-.4215-1.30125c0-.57225.15225-1.035.4575-1.38975.297-.33.66-.495 1.092-.495.4755 0 .80775.15975.9975.48h.015v-2.0295h.786v4.20525c0 .345.009.6615.02775.9525zm-.81375-1.491v-.5895c0-.10275-.0075-.18525-.0225-.2475-.045-.18975-.1395-.34875-.285-.477-.1455-.1275-.3225-.19275-.525-.19275-.2925 0-.52275.11625-.6915.3495-.16725.2325-.252.531-.252.89475 0 .3495.08025.633.2415.85125.17025.2325.39975.3495.687.3495.258 0 .465-.0975.621-.291.1515-.18.225-.39525.225-.64725zm7.536-.306c0 .54375-.15525.99-.465 1.33875-.32625.36-.7575.5385-1.296.5385-.5175 0-.9315-.1725-1.2405-.5175-.3075-.3435-.46125-.77775-.46125-1.30125 0-.5475.159-.9975.477-1.3455s.7455-.52275 1.28475-.52275c.5175 0 .93525.1725 1.25025.516.3.33525.45.76725.45 1.29525zm-.8145.0255c0-.3255-.0705-.60525-.21-.8385-.1665-.282-.4005-.423-.7065-.423-.315 0-.555.141-.72.423-.1425.2325-.2115.5175-.2115.8535 0 .32625.0705.606.21.84.171.28125.408.42225.714.42225.3 0 .53625-.1425.705-.4305.1455-.2385.219-.5205.219-.8475zm5.04075 1.7715h-.78525v-2.025c0-.624-.237-.936-.7125-.936-.234 0-.42225.0855-.56775.25725s-.219.375-.219.606v2.097h-.7875v-2.5245c0-.3105-.0075-.64725-.027-1.0125h.69l.0375.5535h.021c.09225-.1725.22875-.3135.40725-.4275.21375-.13125.4515-.198.7125-.198.33 0 .6045.1065.82275.32025.27225.2625.40725.6525.40725 1.1715v2.11725zm5.28975-2.94675h-.8655v1.7175c0 .4365.15375.65475.4575.65475.1425 0 .25875-.012.351-.0375l.02025.597c-.15525.0585-.36.08775-.6105.08775-.3105 0-.552-.0945-.7275-.2835-.17475-.189-.2625-.507-.2625-.9525v-1.78425h-.516v-.58725h.5175v-.64875l.7695-.2325v.87975h.86625zm4.161 2.94675h-.7875v-2.01c0-.63375-.23625-.951-.711-.951-.3645 0-.6135.18375-.75.55125-.0225.07725-.0375.1725-.0375.28275v2.12625h-.7845v-5.157h.78525v2.13h.015c.2475-.387.60225-.5805 1.062-.5805.3255 0 .59475.1065.8085.32025.267.2655.4005.6615.4005 1.185v2.10225zm4.29225-1.935c0 .141-.0105.2595-.03.35625h-2.3565c.0105.3495.123.615.34125.80025.1995.165.4575.2475.7725.2475.348 0 .666-.0555.9525-.16725l.123.546c-.33525.1455-.72975.2175-1.1865.2175-.5475 0-.97875-.1605-1.29-.483-.315-.3225-.4695-.75525-.4695-1.2975 0-.534.14475-.978.4365-1.332.3045-.378.71625-.567 1.236-.567.5085 0 .89475.189 1.155.567.2115.3.315.67125.315 1.11225zm-.75-.2025c.006-.234-.045-.435-.15225-.6045-.1365-.2175-.345-.32775-.6255-.32775-.2565 0-.465.1065-.6255.32025-.1305.17025-.20775.3735-.2325.61125h1.635z"/></g></g></svg>