<svg height="77" viewBox="0 0 260 77" width="260" xmlns="http://www.w3.org/2000/svg" xmlns:xlink="http://www.w3.org/1999/xlink"><linearGradient id="a" x1="61.033977%" x2="26.520281%" y1="4.962106%" y2="71.902673%"><stop offset="0" stop-color="#00a0ff"/><stop offset=".007" stop-color="#00a1ff"/><stop offset=".26" stop-color="#00beff"/><stop offset=".512" stop-color="#00d2ff"/><stop offset=".76" stop-color="#00dfff"/><stop offset="1" stop-color="#00e3ff"/></linearGradient><linearGradient id="b" x1="107.587496%" x2="-130.460661%" y1="49.976619%" y2="49.976619%"><stop offset="0" stop-color="#ffe000"/><stop offset=".409" stop-color="#ffbd00"/><stop offset=".775" stop-color="#ffa500"/><stop offset="1" stop-color="#ff9c00"/></linearGradient><linearGradient id="c" x1="86.241611%" x2="-50.131831%" y1="30.901107%" y2="136.011785%"><stop offset="0" stop-color="#ff3a44"/><stop offset="1" stop-color="#c31162"/></linearGradient><linearGradient id="d" x1="-18.805058%" x2="42.09864%" y1="-11.864038%" y2="35.074302%"><stop offset="0" stop-color="#32a071"/><stop offset=".069" stop-color="#2da771"/><stop offset=".476" stop-color="#15cf74"/><stop offset=".801" stop-color="#06e775"/><stop offset="1" stop-color="#00f076"/></linearGradient><g fill="none"><path d="m250.25 77h-240.625c-5.29375 0-9.625-4.33125-9.625-9.625v-57.75c0-5.29375 4.33125-9.625 9.625-9.625h240.625c5.29375 0 9.625 4.33125 9.625 9.625v57.75c0 5.29375-4.33125 9.625-9.625 9.625z" fill="#000"/><path d="m250.25 1.54c4.4583 0 8.085 3.6267 8.085 8.085v57.75c0 4.4583-3.6267 8.085-8.085 8.085h-240.625c-4.4583 0-8.085-3.6267-8.085-8.085v-57.75c0-4.4583 3.6267-8.085 8.085-8.085zm0-1.54h-240.625c-5.29375 0-9.625 4.33125-9.625 9.625v57.75c0 5.29375 4.33125 9.625 9.625 9.625h240.625c5.29375 0 9.625-4.33125 9.625-9.625v-57.75c0-5.29375-4.33125-9.625-9.625-9.625z" fill="#a6a6a6"/><path d="m91.27965 19.717775c0 1.61315-.4774 2.89905-1.434125 3.855775-1.0857 1.1396-2.5025 1.7094-4.2427 1.7094-1.668975 0-3.085775-.5775-4.25425-1.7325-1.164625-1.155-1.7479-2.59105-1.7479-4.30045 0-1.71325.583275-3.143525 1.75175-4.298525 1.164625-1.155 2.5795-1.7325 4.248475-1.7325.82775 0 1.617.159775 2.36775.48125.75075.3234 1.357125.75075 1.8095 1.28975l-1.0164 1.02025c-.76615-.9163-1.819125-1.372525-3.162775-1.372525-1.218525 0-2.2715.4235-3.157 1.28205-.8855.8547-1.32825 1.9635-1.32825 3.33025s.44275 2.47555 1.32825 3.33025c.8855.856625 1.938475 1.283975 3.157 1.283975 1.28975 0 2.3639-.4312 3.224375-1.28975.55825-.55825.88165-1.3398.968275-2.3408h-4.1965v-1.386h5.5979c.05775.302225.08085.5929.08085.872025zm8.87425-4.82405h-5.261025v3.663275h4.7432v1.386h-4.745125v3.663275h5.261025v1.418725h-6.743275v-11.55h6.743275v1.418725zm6.2601 10.131275h-1.488025v-10.131275h-3.228225v-1.418725h7.9387v1.418725h-3.22245zm8.96665 0v-11.55h1.48225v11.55zm8.06575 0h-1.48225v-10.131275h-3.23015v-1.418725h7.9387v1.418725h-3.2263zm18.25285-1.491875c-1.13575 1.16655-2.5487 1.75175-4.235 1.75175-1.69015 0-3.09925-.5852-4.235-1.75175s-1.7017-2.5949-1.7017-4.283125.56595-3.1185 1.7017-4.283125c1.13575-1.16655 2.54485-1.75175 4.235-1.75175 1.67475 0 3.085775.587125 4.225375 1.75945 1.1396 1.1704 1.7094 2.59875 1.7094 4.2735 0 1.688225-.567875 3.1185-1.7017 4.283125zm-7.37275-.968275c.8547.86625 1.899975 1.299375 3.13775 1.299375 1.23585 0 2.28305-.433125 3.13775-1.299375.852775-.86625 1.28205-1.9712 1.28205-3.31485s-.429275-2.4486-1.283975-3.31485-1.9019-1.29745-3.13775-1.29745c-1.237775 0-2.28305.4312-3.13775 1.29745s-1.283975 1.9712-1.283975 3.31485.429275 2.450525 1.28205 3.31485zm11.155375 2.46015v-11.55h1.8095l5.611375 8.9859h.063525l-.063525-2.227225v-6.758675h1.48225v11.55h-1.5477l-5.87125-9.42095h-.06545l.06545 2.227225v7.193725h-1.48225z" fill="#fff" stroke="#fff" stroke-width=".2"/><path d="m131.1618 41.8726c-4.5276 0-8.21975 3.4419-8.21975 8.187025 0 4.71625 3.69215 8.187025 8.21975 8.187025s8.21975-3.4727 8.21975-8.187025c0-4.745125-3.69215-8.187025-8.21975-8.187025zm0 13.14775c-2.48325 0-4.62-2.046275-4.62-4.960725 0-2.94525 2.13675-4.96265 4.62-4.96265s4.62 2.015475 4.62 4.96265c0 2.91445-2.13675 4.96265-4.62 4.96265zm-17.92945-13.14775c-4.5276 0-8.21975 3.4419-8.21975 8.187025 0 4.71625 3.69215 8.187025 8.21975 8.187025s8.21975-3.4727 8.21975-8.187025c0-4.745125-3.69215-8.187025-8.21975-8.187025zm0 13.14775c-2.4794 0-4.62-2.046275-4.62-4.960725 0-2.94525 2.1406-4.96265 4.62-4.96265 2.48325 0 4.62 2.015475 4.62 4.96265 0 2.91445-2.13675 4.96265-4.62 4.96265zm-21.32515-10.635625v3.4727h8.310225c-.2464 1.9558-.89705 3.382225-1.89035 4.375525-1.2089 1.2089-3.09925 2.541-6.41795 2.541-5.1205 0-9.118725-4.12335-9.118725-9.24s4.00015-9.24 9.118725-9.24c2.76045 0 4.774 1.083775 6.26395 2.4794l2.450525-2.4486c-2.079-1.98275-4.837525-3.5035-8.71255-3.5035-7.007 0-12.90135 5.7057-12.90135 12.714625 0 7.007 5.8905 12.714625 12.90135 12.714625 3.782625 0 6.635475-1.2397 8.868475-3.567025 2.296525-2.2946 3.0107-5.518975 3.0107-8.1235 0-.8085-.0616-1.55155-.186725-2.1714h-11.690525zm87.2179 2.695c-.683375-1.82875-2.76045-5.207125-7.007-5.207125-4.2196 0-7.725025 3.3187-7.725025 8.187025 0 4.5892 3.4727 8.187025 8.1235 8.187025 3.75375 0 5.923225-2.2946 6.824125-3.628625l-2.79125-1.861475c-.9317 1.36675-2.2022 2.265725-4.032875 2.265725-1.82875 0-3.131975-.8393-3.96935-2.48325l10.947475-4.52375-.371525-.933625zm-11.165 2.7335c-.0924-3.1647 2.450525-4.77785 4.279275-4.77785 1.4245 0 2.63725.71225 3.0415 1.73635zm-8.9012 7.936775h3.59975v-24.0625h-3.59975zm-5.8905-14.04865h-.125125c-.8085-.9625-2.3562-1.82875-4.312-1.82875-4.09255 0-7.844375 3.59975-7.844375 8.21975 0 4.587275 3.75375 8.1543 7.8463 8.1543 1.953875 0 3.5035-.86625 4.312-1.861475h.121275v1.18195c0 3.131975-1.67475 4.806725-4.36975 4.806725-2.204125 0-3.56895-1.5785-4.1272-2.91445l-3.131975 1.303225c.898975 2.1714 3.2879 4.837525 7.25725 4.837525 4.21575 0 7.7847-2.48325 7.7847-8.52775v-14.70315h-3.413025v1.3321zm-4.125275 11.319c-2.48325 0-4.5584-2.079-4.5584-4.928 0-2.8875 2.079-4.995375 4.5584-4.995375 2.450525 0 4.36975 2.1098 4.36975 4.99345 0 2.854775-1.919225 4.933775-4.36975 4.933775zm46.9315-21.334775h-8.60475v24.064425h3.590125v-9.1168h5.01655c3.9809 0 7.8925-2.881725 7.8925-7.474775s-3.9116-7.469-7.8925-7.469zm.09625 11.5962h-5.110875v-8.244775h5.10895c2.685375 0 4.209975 2.22145 4.209975 4.1195 0 1.86725-1.52075 4.1272-4.20805 4.1272zm22.19525-3.455375c-2.59875 0-5.29375 1.14345-6.41025 3.682525l3.19165 1.32825c.68145-1.32825 1.950025-1.7633 3.282125-1.7633 1.857625 0 3.74605 1.1165 3.77685 3.09925v.244475c-.65065-.371525-2.04435-.92785-3.74605-.92785-3.436125 0-6.935775 1.8865-6.935775 5.41695 0 3.220525 2.820125 5.29375 5.977125 5.29375 2.415875 0 3.74605-1.08185 4.5815-2.35235h.125125v1.857625h3.465v-9.226525c0-4.2735-3.185875-6.65665-7.30345-6.65665zm-.433125 13.18625c-1.17425 0-2.816275-.587125-2.816275-2.0405 0-1.85955 2.0405-2.5718 3.80765-2.5718 1.5785 0 2.32155.340725 3.282125.80465-.279125 2.22915-2.19835 3.80765-4.2735 3.80765zm20.372275-12.66265-4.1195 10.4335h-.121275l-4.2735-10.4335h-3.86925l6.41025 14.581875-3.6575 8.11195h3.747975l9.87525-22.6919h-3.99245zm-32.353475 15.4h3.59205v-24.0625h-3.59205z" fill="#fff"/><g transform="translate(17.325 13.475)"><path d="m2.762375 1.03565c-.55825.5929-.891275 1.51305-.891275 2.704625v42.575225c0 1.1935.3311 2.1098.891275 2.7027l.14245.1386 23.8469-23.85075v-.55825l-23.85075-23.85075-.140525.140525z" fill="url(#a)"/><path d="m34.7039 33.264-7.95025-7.956025v-.560175l7.95025-7.95025.18095.102025 9.419025 5.3515c2.689225 1.52845 2.689225 4.029025 0 5.557475l-9.419025 5.3515z" fill="url(#b)"/><path d="m34.88485 33.158125-8.1312-8.133125-23.991275 23.995125c.8855.9394 2.3485 1.0549 4.00015.1155l28.12425-15.9775" fill="url(#c)"/><path d="m34.88485 16.895725-28.12425-15.9775c-1.6478-.937475-3.1108-.821975-3.998225.1155l23.991275 23.9932 8.1312-8.129275z" fill="url(#d)"/><path d="m34.70775 32.9791-27.94715 15.8774c-1.5631.8855-2.958725.82775-3.855775.01925l-.144375.144375.14245.1386c.89705.8085 2.29075.86625 3.855775-.0231l28.12425-15.9775-.18095-.179025z" fill="#000" opacity=".2"/><path d="m2.762375 48.73715c-.55825-.590975-.891275-1.511125-.891275-2.704625v.282975c0 1.1935.3311 2.111725.891275 2.704625l.144375-.144375zm41.5415-21.20965-9.596125 5.44775.1771.179025 9.419025-5.3515c1.34365-.764225 2.0174-1.771 2.0174-2.7797-.1155.914375-.798875 1.8095-2.0174 2.5025z" fill="#000" opacity=".12"/><path d="m6.762525 1.199275 37.54135 21.329c1.218525.693 1.90575 1.5862 2.0174 2.49865 0-1.00485-.67375-2.01355-2.0174-2.777775l-37.54135-21.330925c-2.689225-1.52845-4.8895-.25795-4.8895 2.82205v.282975c0-3.08 2.200275-4.3505 4.8895-2.823975z" fill="#fff" opacity=".25"/></g></g></svg>