<svg height="72" viewBox="0 0 73 72" width="73" xmlns="http://www.w3.org/2000/svg" xmlns:xlink="http://www.w3.org/1999/xlink"><defs><linearGradient id="a" x1="112.689855%" x2="-24.054663%" y1="18.554835%" y2="74.876763%"><stop offset="0" stop-color="#fff"/><stop offset="1" stop-color="#eff7ff"/></linearGradient><path id="b" d="m67.5406213 35.1036946c-1.1765854.0004581-2.1794169-.9465231-2.167239-2.1351671.0290235-2.8328821 4.8480579-2.18373 5.0748039-2.2311477 4.3641817-.0971259 7.4826205-3.6030515 7.4826205-7.920116 0-4.2975936-3.537919-7.8186378-7.8111755-7.8172638l-39.3767233.0167226c-4.2734833.0013744-7.6846513 3.5370791-7.6846513 7.8541437 0 4.2733121 3.2946205 7.7693876 7.567877 7.7693876.4546259.4581412 1.2892782.6725513 1.2897317 2.1915185.0002267.7662411-.2120076 1.2537034-.4859168 1.5888337-.3632472.444626-.924217.6753001-1.4949369.6762164l-13.2183892.0123698c-4.2732565.0013744-7.7166224 3.5054674-7.7166224 7.822532 0 4.347531 3.5050408 7.887359 7.7891812 7.8859846l13.3192911-.002978c1.0530088-.0004581 1.937772.8436671 1.9484291 1.9072419.0006802 1.8440183-1.2892782 2.0978286-1.5160243 2.1452462l-4.5349215.2835894c-4.1802906 0-7.6753546 3.4074252-7.6739941 7.7244898.0013604 4.3172936 3.4989186 7.7845063 7.7721752 7.7831322l40.5929892-.0435238c4.2732565-.0013744 7.7685473-3.4175043 7.7671868-7.7345689s-3.4989187-7.7295293-7.7721752-7.7295293c-.4546259-.2290706-1.2890514-.6872118-1.2897317-2.206179.0097501-1.171238.9491591-2.0751506 2.0729127-2.0790448l12.807752-.0329861c4.2732565-.0013745 7.6245635-3.6071748 7.6245635-7.9242394 0-4.2975936-3.3562954-7.8090168-7.6295519-7.8076424z"/><filter id="c" height="105.4%" width="103.8%" x="-1.9%" y="-2.7%"><feGaussianBlur in="SourceAlpha" result="shadowBlurInner1" stdDeviation=".5"/><feOffset dx="2" dy="1" in="shadowBlurInner1" result="shadowOffsetInner1"/><feComposite in="shadowOffsetInner1" in2="SourceAlpha" k2="-1" k3="1" operator="arithmetic" result="shadowInnerInner1"/><feColorMatrix in="shadowInnerInner1" type="matrix" values="0 0 0 0 0   0 0 0 0 0   0 0 0 0 0  0 0 0 0.3 0"/></filter></defs><g fill="none" fill-rule="evenodd" transform="translate(-12 -7)"><g transform="matrix(.89100652 -.4539905 .4539905 .89100652 -14.162907 26.665678)"><use fill="url(#a)" fill-rule="evenodd" xlink:href="#b"/><use fill="#000" filter="url(#c)" xlink:href="#b"/></g><g fill="#5c2fa8" fill-rule="nonzero" transform="translate(27 17)"><path d="m11.7283951 17.9012344h-1.1111111c.5867513 2.8744832 3.1156258 4.9388705 6.0493827 4.9382719h1.1111111c-.5867514-2.8744832-3.1156258-4.9388705-6.0493827-4.9382719z"/><path d="m21.6049383 16.6666667c0-1.1111111-1.4197531-2.5308642-2.4691358-3.3950618-1.0493827.8641976-2.4691358 2.2839507-2.4691358 3.3950618v.3703703c1.0052377.6958891 1.8476355 1.6014668 2.4691358 2.654321.6215002-1.0528542 1.463898-1.9584319 2.4691358-2.654321z"/><path d="m42.4691358 28.4567901-4.8148148-9.6296296c-.0852291-10.22749537-8.4453442-18.44942666-18.6728395-18.36419754-10.22749539.08522913-18.44942668 8.44534414-18.36419755 18.67283954 0 4.8148148 1.11111111 9.0123456 2.28395062 13.4567901 1.1728395 4.4444444 2.65432099 9.8148148 2.65432099 16.1728395 0 .681833.55273487 1.2345679 1.2345679 1.2345679h19.75308644c.681833 0 1.2345679-.5527349 1.2345679-1.2345679v-8.6419753h4.9382716c2.7273321 0 4.9382716-2.2109395 4.9382716-4.9382716v-4.9382716h3.7037037c.4165095-.0143553.8033646-.2191609 1.0493827-.5555556.2399471-.3708487.2634864-.8416339.0617284-1.2345679zm-20.8641975-3.1481481h-4.9382716c-4.7728312 0-8.64197534-3.8691442-8.64197534-8.6419753 0-.6818331.55273487-1.2345679 1.2345679-1.2345679h2.46913584c.8810029.0129111 1.755024.1585813 2.5925926.4320987.5555555-2.654321 3.7037037-4.8765432 4.1358024-5.1851852.4201743-.2425877.9378504-.2425877 1.3580247 0 .4320988.308642 3.5802469 2.5308642 4.1358025 5.1851852.8375686-.2735174 1.7115896-.4191876 2.5925926-.4320987h2.4691358c.681833 0 1.2345679.5527348 1.2345679 1.2345679 0 4.7728311-3.8691442 8.6419753-8.6419753 8.6419753z"/><path d="m20.4938272 22.8395063h1.1111111c2.9337569.0005986 5.4626314-2.0637887 6.0493827-4.9382719h-1.1111111c-2.9337569-.0005986-5.4626314 2.0637887-6.0493827 4.9382719z"/></g></g></svg>