<svg height="714" viewBox="0 0 1395 714" width="1395" xmlns="http://www.w3.org/2000/svg" xmlns:xlink="http://www.w3.org/1999/xlink"><defs><rect id="a" height="714" rx="50" width="1395"/><mask id="b" fill="#fff"><use fill="#fff" fill-rule="evenodd" xlink:href="#a"/></mask></defs><g fill="none" fill-rule="evenodd"><use fill="#fff" xlink:href="#a"/><g mask="url(#b)"><path d="m1358.727 419.5c0-16.694-13.53-30.227-30.227-30.227-16.698 0-30.227 13.533-30.227 30.227s13.53 30.227 30.227 30.227c16.698 0 30.227-13.533 30.227-30.227zm-30.227-66.5c36.732 0 66.5 29.773 66.5 66.5s-29.768 66.5-66.5 66.5-66.5-29.773-66.5-66.5 29.768-66.5 66.5-66.5z" fill="#fd6234"/><path d="m1327 438c-9.936 0-18-8.06-18-18s8.064-18 18-18 18 8.06 18 18-8.064 18-18 18z" fill="#463c74"/><path d="m396 584.5c0 36.727-29.783 66.5-66.524 66.5h-120.952c-36.74 0-66.524-29.773-66.524-66.5s29.783-66.5 66.524-66.5h120.952c36.74 0 66.524 29.773 66.524 66.5zm-66.524 30.227c16.7 0 30.238-13.533 30.238-30.227s-13.538-30.227-30.238-30.227h-120.952c-16.7 0-30.238 13.533-30.238 30.227s13.538 30.227 30.238 30.227z" fill="#b4d51e"/><path d="m266.578 565.81c22.262 0 40.161-17.904 40.161-39.81s-17.9-39.81-40.16-39.81c-12.3 0-23.273 5.456-30.657 14.09-6.5 7.603-17.944 8.507-25.56 2.019-7.617-6.488-8.523-17.91-2.022-25.51 14-16.377 34.915-26.789 58.238-26.789 42.127 0 76.422 33.945 76.422 76s-34.295 76-76.422 76c-10.013 0-18.13-8.102-18.13-18.095 0-9.994 8.117-18.095 18.13-18.095z" fill="#e5e0d5" fill-rule="nonzero"/><path d="m554.874 98.997c11.804-11.821 11.804-30.987 0-42.808-11.805-11.82-30.943-11.82-42.748 0-11.804 11.821-11.804 30.987 0 42.808 7.083 7.092 7.083 18.592 0 25.683-7.083 7.093-18.567 7.093-25.648 0-25.97-26.005-25.97-68.17 0-94.175 25.969-26.007 68.074-26.007 94.044 0 25.97 26.006 25.97 68.17 0 94.175-7.083 7.093-18.565 7.093-25.648 0-7.083-7.091-7.083-18.59 0-25.683z" fill="#463c74"/><path d="m487.272 100.272c7.03-7.03 18.426-7.03 25.456 0s7.03 18.426 0 25.456-18.426 7.03-25.456 0-7.03-18.427 0-25.456z" fill="#fd6234"/><path d="m123 662.269c-20.77 0-37.607 16.779-37.607 37.477v70.12c0 10.015-8.146 18.134-18.196 18.134s-18.197-8.12-18.197-18.134v-70.12c0-40.728 33.13-73.746 74-73.746z" fill="#e5e0d5" fill-rule="nonzero"/><path d="m70.324 473.728c16.836-.217 30.307-13.925 30.088-30.618s-14.045-30.05-30.881-29.833c-10.102.13-18.398-7.883-18.53-17.9-.13-10.015 7.952-18.24 18.054-18.371 37.04-.478 67.458 28.906 67.94 65.632.48 36.725-29.155 66.883-66.196 67.36-10.102.131-18.397-7.883-18.529-17.9-.131-10.015 7.952-18.24 18.054-18.37zm88.462 129.612c-16.766 0-30.357 13.559-30.357 30.284s13.591 30.283 30.357 30.283c66.392 0 120.214 53.693 120.214 119.923 0 10.035-8.155 18.17-18.214 18.17-10.06 0-18.215-8.135-18.215-18.17 0-46.162-37.511-83.583-83.785-83.583-36.886 0-66.786-29.827-66.786-66.623s29.9-66.624 66.786-66.624c10.059 0 18.214 8.135 18.214 18.17s-8.155 18.17-18.214 18.17z" fill="#ffc735"/><path d="m395.316 588.158c0 46.13 37.395 83.526 83.526 83.526 10.028 0 18.158 8.13 18.158 18.158s-8.13 18.158-18.158 18.158c-66.187 0-119.842-53.655-119.842-119.842 0-10.028 8.13-18.158 18.158-18.158s18.158 8.13 18.158 18.158z" fill="#e5e0d5" fill-rule="nonzero"/><path d="m765.793 45.414c-67.035 0-121.38 54.343-121.38 121.38 0 10.054-8.151 18.206-18.206 18.206s-18.207-8.152-18.207-18.207c0-87.147 70.646-157.793 157.793-157.793 10.055 0 18.207 8.151 18.207 18.207 0 10.055-8.152 18.207-18.207 18.207z" fill="#ffc735"/><path d="m938.65 156.825c0-61.566-49.91-111.475-111.475-111.475-10.037 0-18.175-8.137-18.175-18.175s8.138-18.175 18.175-18.175c81.642 0 147.825 66.183 147.825 147.825 0 10.037-8.138 18.175-18.175 18.175-10.038 0-18.175-8.138-18.175-18.175z" fill="#b4d51e"/><path d="m371.59 501.795c0-48.262-39.123-87.385-87.385-87.385-10.054 0-18.205-8.15-18.205-18.205 0-10.054 8.151-18.205 18.205-18.205 68.37 0 123.795 55.425 123.795 123.795 0 10.054-8.151 18.205-18.205 18.205s-18.205-8.151-18.205-18.205z" fill="#ffc735"/><path d="m52.002 492.235c-.13-9.941 7.824-18.105 17.764-18.233 9.94-.13 18.103 7.824 18.232 17.763.13 9.941-7.824 18.104-17.764 18.233-9.94.13-18.103-7.824-18.232-17.763zm325.998 113.765c-9.94 0-18-8.06-18-18s8.06-18 18-18 18 8.06 18 18-8.06 18-18 18zm-218-2c-9.94 0-18-8.06-18-18s8.06-18 18-18 18 8.06 18 18-8.06 18-18 18z" fill="#fd6234"/><path d="m508.727 582.5c0-16.694-13.533-30.227-30.227-30.227-16.695 0-30.227 13.533-30.227 30.227s13.532 30.227 30.227 30.227c16.694 0 30.227-13.533 30.227-30.227zm-30.227-66.5c36.726 0 66.5 29.773 66.5 66.5s-29.774 66.5-66.5 66.5c-36.727 0-66.5-29.773-66.5-66.5s29.773-66.5 66.5-66.5z" fill="#ffc735"/><path d="m559 219.143c0 10.02 8.154 18.143 18.214 18.143 16.766 0 30.357 13.538 30.357 30.238v120.952c0 16.7-13.591 30.238-30.357 30.238-10.06 0-18.214 8.123-18.214 18.143s8.154 18.143 18.214 18.143c19.137 0 36.395-8.018 48.572-20.865 12.174 12.847 29.434 20.865 48.571 20.865h55.857c36.886 0 66.786-29.783 66.786-66.524 0-10.02-8.155-18.143-18.214-18.143-10.06 0-18.215 8.123-18.215 18.143 0 16.7-13.591 30.238-30.357 30.238h-55.857c-16.765 0-30.357-13.538-30.357-30.238v-120.952c0-36.74-29.902-66.524-66.786-66.524-10.06 0-18.214 8.123-18.214 18.143z" fill="#b4d51e"/><path d="m596 437.017c0-10.026-8.142-18.155-18.186-18.155-16.74 0-30.31-13.547-30.31-30.259v-121.033c0-16.711 13.57-30.259 30.31-30.259 10.044 0 18.186-8.128 18.186-18.155 0-10.026-8.142-18.156-18.186-18.156-36.827 0-66.681 29.804-66.681 66.569v121.034c0 1.49.048 2.968.145 4.433-30.267 9.25-52.278 37.363-52.278 70.609v70.2c0 10.025 8.142 18.155 18.186 18.155 10.043 0 18.186-8.129 18.186-18.155v-70.2c0-17.481 11.976-32.171 28.183-36.337 12.097 16.87 31.892 27.864 54.26 27.864 10.043 0 18.185-8.128 18.185-18.155z" fill="#e5e0d5" fill-rule="nonzero"/><path d="m577.5 455.273c-16.695 0-30.227 13.533-30.227 30.227s13.532 30.227 30.227 30.227c16.694 0 30.227-13.533 30.227-30.227 0-10.016 8.12-18.136 18.137-18.136 10.016 0 18.136 8.12 18.136 18.136 0 36.727-29.774 66.5-66.5 66.5-36.727 0-66.5-29.773-66.5-66.5s29.773-66.5 66.5-66.5c10.016 0 18.136 8.12 18.136 18.136s-8.12 18.137-18.136 18.137z" fill="#463c74"/><path d="m1015.273 577.5c0-16.694 13.533-30.227 30.227-30.227s30.227 13.533 30.227 30.227-13.533 30.227-30.227 30.227c-10.016 0-18.136 8.12-18.136 18.137 0 10.016 8.12 18.136 18.136 18.136 36.727 0 66.5-29.773 66.5-66.5s-29.773-66.5-66.5-66.5-66.5 29.773-66.5 66.5c0 10.016 8.12 18.136 18.136 18.136s18.137-8.12 18.137-18.136z" fill="#e5e0d5" fill-rule="nonzero"/><path d="m578 455c-9.942 0-18-8.06-18-18s8.058-18 18-18c9.94 0 18 8.06 18 18s-8.06 18-18 18zm0-218c-9.942 0-18-8.06-18-18s8.058-18 18-18c9.94 0 18 8.06 18 18s-8.06 18-18 18zm-101 315c-9.94 0-18-8.06-18-18s8.06-18 18-18 18 8.06 18 18-8.06 18-18 18z" fill="#fd6234"/><path d="m478 600c-9.94 0-18-8.06-18-18s8.06-18 18-18 18 8.06 18 18-8.06 18-18 18z" fill="#463c74"/><path d="m1240.545 421.318c0 36.828-29.847 66.682-66.666 66.682h-121.212c-36.82 0-66.667-29.854-66.667-66.682s29.847-66.682 66.667-66.682h38.788v-38.191c0-36.827 29.847-66.682 66.666-66.682h121.212c16.74 0 30.303-13.57 30.303-30.31v-55.77c0-16.74-13.563-30.31-30.303-30.31-10.036 0-18.181-8.143-18.181-18.187s8.145-18.186 18.181-18.186c36.825 0 66.667 29.854 66.667 66.682v55.77c0 19.108-8.036 36.34-20.91 48.497 12.874 12.158 20.91 29.388 20.91 48.496v54.558c0 10.044-8.145 18.186-18.182 18.186-10.036 0-18.182-8.142-18.182-18.186v-54.558c0-16.74-13.563-30.31-30.303-30.31h-121.212c-16.736 0-30.303 13.57-30.303 30.31v38.19h46.06c36.82 0 66.667 29.855 66.667 66.683zm-187.878-30.31c-16.736 0-30.303 13.57-30.303 30.31s13.567 30.31 30.303 30.31h121.212c16.736 0 30.303-13.57 30.303-30.31s-13.567-30.31-30.303-30.31z" fill="#b4d51e"/><path d="m968.19 246.837c20.693 8.38 44.129-1.45 52.445-21.72 8.315-20.272-1.529-43.577-22.222-51.956a40.538 40.538 0 0 0 -33.847 1.5c-8.93 4.587-19.91 1.115-24.528-7.754-4.618-8.87-1.123-19.78 7.804-24.368 19.232-9.882 42.627-11.647 64.308-2.867 39.16 15.855 58.156 60.178 42.193 99.092-15.964 38.916-60.731 57.42-99.892 41.564-9.307-3.77-13.778-14.322-9.984-23.57 3.793-9.248 14.414-13.689 23.723-9.92zm272.126 178.321c0 46.13 37.393 83.526 83.526 83.526 10.023 0 18.158 8.13 18.158 18.158s-8.135 18.158-18.158 18.158c-66.191 0-119.842-53.655-119.842-119.842 0-10.028 8.135-18.158 18.158-18.158s18.158 8.13 18.158 18.158z" fill="#ffc735"/><path d="m1222 442c-9.936 0-18-8.06-18-18s8.064-18 18-18 18 8.06 18 18-8.064 18-18 18z" fill="#fd6234"/><path d="m559.727 351.786c0-16.766-13.533-30.357-30.227-30.357-16.695 0-30.227 13.591-30.227 30.357 0 10.059-8.12 18.214-18.137 18.214-10.016 0-18.136-8.155-18.136-18.214 0-36.886 29.773-66.786 66.5-66.786 36.726 0 66.5 29.9 66.5 66.786 0 10.059-8.12 18.214-18.136 18.214-10.018 0-18.137-8.155-18.137-18.214z" fill="#ffc735"/><path d="m857.727 389.786c0-16.766-13.533-30.357-30.227-30.357s-30.227 13.591-30.227 30.357c0 10.059-8.12 18.214-18.137 18.214-10.016 0-18.136-8.155-18.136-18.214 0-36.886 29.773-66.786 66.5-66.786s66.5 29.9 66.5 66.786c0 10.059-8.12 18.214-18.136 18.214s-18.137-8.155-18.137-18.214z" fill="#463c74"/><path d="m585.12 588.76c53.373 0 96.64-43.267 96.64-96.64 0-10.007 8.113-18.12 18.12-18.12s18.12 8.113 18.12 18.12c0 73.387-59.493 132.88-132.88 132.88-10.007 0-18.12-8.113-18.12-18.12s8.113-18.12 18.12-18.12z" fill="#b4d51e"/><path d="m578 370c-9.942 0-18-8.06-18-18s8.058-18 18-18c9.94 0 18 8.06 18 18s-8.06 18-18 18zm127-115c-9.94 0-18-8.06-18-18s8.06-18 18-18 18 8.06 18 18-8.06 18-18 18zm276 372c0 9.94 8.06 18 18 18s18-8.06 18-18-8.06-18-18-18-18 8.06-18 18zm-48 0c0 9.94 8.06 18 18 18s18-8.06 18-18-8.06-18-18-18-18 8.06-18 18z" fill="#fd6234"/><path d="m613.5 654c36.727 0 66.5 29.783 66.5 66.524v120.952c0 36.74-29.773 66.524-66.5 66.524s-66.5-29.783-66.5-66.524v-120.952c0-36.74 29.773-66.524 66.5-66.524zm30.227 66.524c0-16.7-13.533-30.238-30.227-30.238s-30.227 13.538-30.227 30.238v120.952c0 16.7 13.533 30.238 30.227 30.238s30.227-13.538 30.227-30.238zm119.416 186.476c10.02 0 18.143-8.155 18.143-18.214 0-16.766 13.538-30.357 30.238-30.357h120.952c16.7 0 30.238 13.591 30.238 30.357 0 10.059 8.123 18.214 18.143 18.214s18.143-8.155 18.143-18.214c0-19.137-8.018-36.395-20.865-48.572 12.847-12.177 20.865-29.434 20.865-48.571v-55.857c0-36.886-29.783-66.786-66.524-66.786-10.02 0-18.143 8.155-18.143 18.214 0 10.06 8.123 18.215 18.143 18.215 16.7 0 30.238 13.591 30.238 30.357v55.857c0 16.765-13.538 30.357-30.238 30.357h-120.951c-.001 0 0 0 0 0-36.74 0-66.525 29.9-66.525 66.786 0 10.059 8.123 18.214 18.143 18.214z" fill="#b4d51e"/><path d="m843.727 739.5c0-16.694-13.533-30.227-30.227-30.227s-30.227 13.533-30.227 30.227 13.533 30.227 30.227 30.227c10.016 0 18.136 8.12 18.136 18.137 0 10.016-8.12 18.136-18.136 18.136-36.727 0-66.5-29.773-66.5-66.5s29.773-66.5 66.5-66.5 66.5 29.773 66.5 66.5c0 10.016-8.12 18.136-18.136 18.136s-18.137-8.12-18.137-18.136z" fill="#463c74"/><path d="m933.813 582.364c-23.1 0-42.438 19.195-42.438 43.636s19.338 43.636 42.438 43.636c10.044 0 18.187 8.141 18.187 18.182 0 10.042-8.143 18.182-18.188 18.182-43.864 0-78.812-36.159-78.812-80s34.948-80 78.813-80c10.044 0 18.187 8.14 18.187 18.182 0 10.041-8.143 18.182-18.188 18.182z" fill="#ffc735"/><path d="m618.113 653.774c76.027 0 137.66-61.634 137.66-137.66 0-10.004 8.11-18.114 18.114-18.114 10.003 0 18.113 8.11 18.113 18.113 0 96.035-77.852 173.887-173.887 173.887-10.003 0-18.113-8.11-18.113-18.113 0-10.004 8.11-18.113 18.113-18.113zm534.718-609.436c-64.89 0-117.493 52.603-117.493 117.493 0 10.034-8.135 18.169-18.169 18.169s-18.169-8.135-18.169-18.169c0-84.959 68.873-153.831 153.831-153.831 10.034 0 18.169 8.135 18.169 18.169 0 10.035-8.135 18.169-18.169 18.169z" fill="#e5e0d5" fill-rule="nonzero"/><path d="m832 639c0 9.94-8.06 18-18 18s-18-8.06-18-18 8.06-18 18-18 18 8.06 18 18zm0-49c0 9.94-8.06 18-18 18s-18-8.06-18-18 8.06-18 18-18 18 8.06 18 18zm-35-200c0 9.94-8.06 18-18 18s-18-8.06-18-18 8.06-18 18-18 18 8.06 18 18zm154 297c0 9.94-8.06 18-18 18s-18-8.06-18-18 8.06-18 18-18 18 8.06 18 18z" fill="#fd6234"/><path d="m381.5 108.727c-16.694 0-30.227-13.533-30.227-30.227s13.533-30.227 30.227-30.227 30.227 13.533 30.227 30.227-13.533 30.227-30.227 30.227zm-66.5-30.227c0 36.727 29.773 66.5 66.5 66.5s66.5-29.773 66.5-66.5-29.773-66.5-66.5-66.5-66.5 29.773-66.5 66.5z" fill="#ffc735"/><path d="m18.143 159c10.02 0 18.143 8.14 18.143 18.18 0 16.734 13.538 30.3 30.238 30.3h120.952c16.7 0 30.238-13.566 30.238-30.3 0-10.04 8.123-18.18 18.143-18.18s18.143 8.14 18.143 18.18c0 36.816-29.783 66.66-66.524 66.66h-118.533c-16.7 0-30.238 13.566-30.238 30.3v121.2c0 16.734 13.538 30.3 30.238 30.3 10.02 0 18.143 8.14 18.143 18.18s-8.123 18.18-18.143 18.18c-36.74 0-66.524-29.844-66.524-66.66v-121.2c0-18.51 7.529-35.258 19.686-47.337-13.57-12.204-22.105-29.915-22.105-49.623 0-10.04 8.123-18.18 18.143-18.18z" fill="#b4d51e"/><path d="m192.281 110.857c9.585-29.51 37.442-50.857 70.313-50.857h70.24c10.033 0 18.166 8.086 18.166 18.061s-8.133 18.061-18.166 18.061h-70.24c-17.17 0-31.649 11.461-36.118 27.109 16.704 12.034 27.571 31.605 27.571 53.702 0 9.978-8.124 18.067-18.146 18.067s-18.146-8.089-18.146-18.067c0-16.63-13.54-30.11-30.244-30.11h-120.975c-16.703 0-30.244 13.48-30.244 30.11 0 9.978-8.124 18.067-18.146 18.067s-18.146-8.089-18.146-18.067c0-36.585 29.79-66.243 66.536-66.243h120.975c1.604 0 3.195.056 4.77.167z" fill="#e5e0d5" fill-rule="nonzero"/><path d="m254.273 177.5c0-16.694 13.533-30.227 30.227-30.227s30.227 13.533 30.227 30.227-13.533 30.227-30.227 30.227c-10.016 0-18.136 8.12-18.136 18.137 0 10.016 8.12 18.136 18.136 18.136 36.727 0 66.5-29.773 66.5-66.5s-29.773-66.5-66.5-66.5-66.5 29.773-66.5 66.5c0 10.016 8.12 18.136 18.136 18.136s18.137-8.12 18.137-18.136z" fill="#463c74"/><path d="m254 178c0-9.94-8.06-18-18-18s-18 8.06-18 18 8.06 18 18 18 18-8.06 18-18z" fill="#fd6234"/><path d="m36 177c0-9.94-8.06-18-18-18s-18 8.06-18 18 8.06 18 18 18 18-8.06 18-18zm200 111c0-9.94-8.06-18-18-18s-18 8.06-18 18 8.06 18 18 18 18-8.06 18-18zm0 48c0-9.94-8.06-18-18-18s-18 8.06-18 18 8.06 18 18 18 18-8.06 18-18zm157 21c0-9.94-8.06-18-18-18s-18 8.06-18 18 8.06 18 18 18 18-8.06 18-18zm50-3c0-9.94-8.06-18-18-18s-18 8.06-18 18 8.06 18 18 18 18-8.06 18-18zm0 51c0-9.94-8.06-18-18-18s-18 8.06-18 18 8.06 18 18 18 18-8.06 18-18z" fill="#463c74"/><path d="m351 78c0-9.941-8.06-18-18-18s-18 8.059-18 18 8.06 18 18 18 18-8.059 18-18zm49 0c0-9.941-8.06-18-18-18s-18 8.059-18 18 8.06 18 18 18 18-8.059 18-18z" fill="#fd6234"/><path d="m175.786 158.727c-16.766 0-30.357-13.533-30.357-30.227s13.591-30.227 30.357-30.227c10.059 0 18.214-8.12 18.214-18.137 0-10.016-8.155-18.136-18.214-18.136-36.886 0-66.786 29.773-66.786 66.5s29.9 66.5 66.786 66.5c10.059 0 18.214-8.12 18.214-18.136s-8.155-18.137-18.214-18.137z" fill="#ffc735"/><path d="m85.158 342.316c46.13 0 83.526 37.395 83.526 83.526 0 10.028 8.13 18.158 18.158 18.158s18.158-8.13 18.158-18.158c0-66.187-53.655-119.842-119.842-119.842-10.028 0-18.158 8.13-18.158 18.158s8.13 18.158 18.158 18.158zm2.842 101.684c0-9.94-8.059-18-18-18s-18 8.06-18 18 8.059 18 18 18 18-8.06 18-18zm544 228c0 9.94-8.06 18-18 18s-18-8.06-18-18 8.06-18 18-18 18 8.06 18 18z" fill="#fd6234"/><path d="m835.533 172.301c-20.466 0-37.254 16.739-37.254 37.63 0 20.89 16.788 37.63 37.254 37.63 74.372-.001 134.467 60.679 134.467 135.287 0 10.024-8.122 18.151-18.14 18.151-10.017 0-18.14-8.127-18.14-18.15 0-54.778-44.067-98.988-98.187-98.988-40.719 0-73.533-33.209-73.533-73.93 0-40.724 32.814-73.931 73.533-73.931 10.019 0 18.14 8.127 18.14 18.15 0 10.025-8.121 18.151-18.14 18.151z" fill="#ffc735"/><path d="m933.81 383.189c0 55.093-43.925 99.433-97.715 99.433-9.993 0-18.095 8.144-18.095 18.189s8.102 18.189 18.095 18.189c74.13 0 133.905-60.983 133.905-135.811 0-10.045-8.102-18.189-18.095-18.189-9.994 0-18.095 8.144-18.095 18.189z" fill="#fd6234"/><path d="m952 401c-9.94 0-18-8.06-18-18s8.06-18 18-18 18 8.06 18 18-8.06 18-18 18z" fill="#463c74"/><path d="m705 273c9.94 0 18 8.13 18 18.158v78.684c0 10.028-8.06 18.158-18 18.158s-18-8.13-18-18.158v-78.684c0-10.028 8.06-18.158 18-18.158zm-298.37-101.815c0 67.625-54.82 122.445-122.445 122.445-10.043 0-18.185 8.142-18.185 18.185s8.142 18.185 18.185 18.185c87.71 0 158.815-71.104 158.815-158.815 0-10.043-8.142-18.185-18.185-18.185s-18.185 8.142-18.185 18.185z" fill="#b4d51e"/><path d="m1005 210c0 9.94-8.128 18-18.153 18h-153.694c-10.025 0-18.153-8.06-18.153-18s8.128-18 18.153-18h153.694c10.025 0 18.153 8.06 18.153 18z" fill="#e5e0d5" fill-rule="nonzero"/><path d="m443 171c0-9.94-8.06-18-18-18s-18 8.06-18 18 8.06 18 18 18 18-8.06 18-18z" fill="#fd6234"/><path d="m968.728 170.728c-7.03 7.03-18.427 7.03-25.456 0-7.03-7.03-7.03-18.427 0-25.456 7.029-7.03 18.426-7.03 25.456 0 7.03 7.029 7.03 18.426 0 25.456zm-124-54c-7.03 7.03-18.427 7.03-25.456 0-7.03-7.03-7.03-18.427 0-25.456 7.029-7.03 18.426-7.03 25.456 0s7.03 18.426 0 25.456zm-844.728 447.272c0-9.94 8.093-18 18.077-18h57.846c9.984 0 18.077 8.06 18.077 18s-8.093 18-18.077 18h-57.846c-9.984 0-18.077-8.06-18.077-18z" fill="#463c74"/><path d="m0 27c0-9.941 8.14-18 18.182-18h83.636c10.042 0 18.182 8.059 18.182 18s-8.14 18-18.182 18h-83.636c-10.042 0-18.182-8.059-18.182-18zm778.868 97.264c-30.71 0-55.604 24.895-55.604 55.604 0 10.014-8.119 18.132-18.132 18.132-10.015 0-18.132-8.118-18.132-18.132 0-50.738 41.13-91.868 91.868-91.868 10.014 0 18.132 8.118 18.132 18.132s-8.118 18.132-18.132 18.132z" fill="#fd6234"/><path d="m692.272 167.272c7.029-7.03 18.426-7.03 25.456 0s7.03 18.426 0 25.456-18.427 7.03-25.456 0c-7.03-7.03-7.03-18.426 0-25.456z" fill="#463c74"/><path d="m1052.191 698.617c64.3 0 116.426-52.126 116.426-116.426 0-10.046 8.145-18.191 18.192-18.191 10.046 0 18.191 8.145 18.191 18.191 0 84.394-68.415 152.809-152.809 152.809-10.046 0-18.191-8.145-18.191-18.191 0-10.047 8.145-18.192 18.191-18.192z" fill="#b4d51e"/><path d="m1199.728 594.728c-7.03 7.03-18.427 7.03-25.456 0-7.03-7.03-7.03-18.427 0-25.456 7.029-7.03 18.426-7.03 25.456 0 7.03 7.029 7.03 18.426 0 25.456zm50.998 0c-7.032 7.03-18.432 7.03-25.452 0-7.032-7.03-7.032-18.427 0-25.456 7.02-7.03 18.42-7.03 25.452 0 7.032 7.029 7.032 18.426 0 25.456z" fill="#463c74"/><path d="m1371.829 663.343c-86.981 0-157.486 70.509-157.486 157.486 0 10.035-8.136 18.171-18.172 18.171-10.035 0-18.171-8.136-18.171-18.171 0-107.05 86.775-193.829 193.829-193.829 10.03 0 18.171 8.136 18.171 18.171 0 10.036-8.14 18.172-18.171 18.172z" fill="#ffc735"/><path d="m1005 209.91c.05 9.94-7.967 18.04-17.91 18.09-9.94.05-18.04-7.967-18.09-17.91-.05-9.94 7.968-18.04 17.91-18.09 9.94-.05 18.04 7.968 18.09 17.91zm166-184.001c.05 9.941-7.967 18.04-17.91 18.091-9.94.05-18.04-7.968-18.09-17.909s7.968-18.04 17.91-18.091c9.94-.05 18.04 7.968 18.09 17.909zm-166 1c.05 9.941-7.967 18.04-17.91 18.091-9.94.05-18.04-7.968-18.09-17.909s7.968-18.04 17.91-18.091c9.94-.05 18.04 7.968 18.09 17.909zm0 49c.05 9.941-7.967 18.04-17.91 18.091-9.94.05-18.04-7.968-18.09-17.909s7.968-18.04 17.91-18.091c9.94-.05 18.04 7.968 18.09 17.909z" fill="#fd6234"/><path d="m1362.9 600h-71.8c-9.99 0-18.1-8.06-18.1-18s8.11-18 18.1-18h71.8c9.99 0 18.1 8.06 18.1 18s-8.11 18-18.1 18z" fill="#e5e0d5" fill-rule="nonzero"/><path d="m1390 645c0 9.94-8.064 18-18 18s-18-8.06-18-18 8.064-18 18-18 18 8.06 18 18z" fill="#fd6234"/><path d="m1182.727 161.5c0-16.694-13.533-30.227-30.227-30.227s-30.227 13.533-30.227 30.227 13.533 30.227 30.227 30.227c10.016 0 18.136 8.12 18.136 18.137 0 10.016-8.12 18.136-18.136 18.136-36.727 0-66.5-29.773-66.5-66.5s29.773-66.5 66.5-66.5 66.5 29.773 66.5 66.5c0 10.016-8.125 18.136-18.136 18.136-10.016 0-18.137-8.12-18.137-18.136z" fill="#463c74"/><path d="m1276.786 36.273c-16.77 0-30.357 13.533-30.357 30.227s13.587 30.227 30.357 30.227c10.054 0 18.214 8.12 18.214 18.137 0 10.016-8.16 18.136-18.214 18.136-36.89 0-66.786-29.773-66.786-66.5s29.896-66.5 66.786-66.5c10.054 0 18.214 8.12 18.214 18.136 0 10.017-8.16 18.137-18.214 18.137z" fill="#e5e0d5" fill-rule="nonzero"/><path d="m1172 210c0 9.94-8.06 18-18 18s-18-8.06-18-18 8.06-18 18-18 18 8.06 18 18z" fill="#fd6234"/><path d="m1295 115c0 9.94-8.064 18-18 18s-18-8.06-18-18c0-9.941 8.064-18 18-18s18 8.059 18 18zm-74 95c0 9.94-8.064 18-18 18-9.94 0-18-8.06-18-18s8.06-18 18-18c9.936 0 18 8.06 18 18zm48 0c0 9.94-8.064 18-18 18s-18-8.06-18-18 8.064-18 18-18 18 8.06 18 18z" fill="#463c74"/><path d="m1297 66c0 9.941-8.064 18-18 18s-18-8.059-18-18 8.064-18 18-18 18 8.059 18 18zm48 0c0 9.941-8.064 18-18 18s-18-8.059-18-18 8.064-18 18-18 18 8.059 18 18zm49 0c0 9.941-8.064 18-18 18s-18-8.059-18-18 8.064-18 18-18 18 8.059 18 18z" fill="#fd6234"/><path d="m1328 389c-9.936 0-18-8.06-18-18s8.064-18 18-18 18 8.06 18 18-8.064 18-18 18z" fill="#463c74"/></g></g></svg>