<?xml version="1.0" encoding="UTF-8"?>
<!DOCTYPE svg PUBLIC "-//W3C//DTD SVG 1.1//EN" "http://www.w3.org/Graphics/SVG/1.1/DTD/svg11.dtd">
<!-- Creator: CorelDRAW 2021 (64-Bit) -->
<svg xmlns="http://www.w3.org/2000/svg" xml:space="preserve" width="0.69in" height="0.166661in" version="1.1" style="shape-rendering:geometricPrecision; text-rendering:geometricPrecision; image-rendering:optimizeQuality; fill-rule:evenodd; clip-rule:evenodd"
viewBox="0 0 252.33 60.95"
 xmlns:xlink="http://www.w3.org/1999/xlink"
 xmlns:xodm="http://www.corel.com/coreldraw/odm/2003">
 <defs>
  <style type="text/css">
   <![CDATA[
    .fil1 {fill:none}
    .fil0 {fill:#441890}
   ]]>
  </style>
   <clipPath id="id0">
    <path d="M-0 0l252.33 0 0 60.95 -252.33 0 0 -60.95z"/>
   </clipPath>
 </defs>
 <g id="Layer_x0020_1">
  <metadata id="CorelCorpID_0Corel-Layer"/>
  <g>
  </g>
  <g style="clip-path:url(#id0)">
   <g>
    <path class="fil0" d="M219.34 14.4l0 14.99c0,4.47 2.02,8.32 4.2,10.59 3.57,3.7 6.11,4.83 11.57,4.83 4.06,0 8.13,-2.69 10.58,-5.65 0,5.74 0.38,8.42 -1.95,12.08 -1.56,2.45 -4.86,5.3 -8.64,5.3 -4.01,0 -6.36,-0.58 -9.39,-3.85 -1.59,-1.72 -3.06,-4.98 -3.06,-8.31 -1.19,0 -3.32,-0.27 -3.32,0.43 0,13.01 14.78,20.05 24.23,11.9 1.54,-1.33 1.3,-1.07 2.63,-2.89 1.66,-2.28 2.81,-5.43 2.81,-8.57l0 -31.49 -3.32 0 0 15.42c0,8.98 -8.97,14.87 -16.47,10.93 -2.57,-1.35 -4.56,-3.37 -5.66,-6.24 -0.57,-1.5 -0.91,-3.34 -0.91,-5.34l0 -14.77c-2.25,0 -3.32,-0.33 -3.32,0.65zm-102.93 17.83l0 12.58 3.32 0 0 -13.45c0,-3.66 0.33,-6.62 2.45,-9.39 7.15,-9.36 19.68,-3.03 20.37,5.45 0.37,4.77 0.21,12.5 0.21,17.39l3.32 0c0,-4.1 0.44,-14.76 -0.21,-17.84 -0.62,-7.38 -9.46,-15.86 -19.49,-12.33 -4.19,1.48 -5.02,3.6 -6.66,4.76l0 -11.08 -3.32 0 0 23.91zm-8.09 -0.82l-0.01 11.46c-0.04,2.17 -0.17,1.97 1.88,1.97 2.23,0 1.66,0.42 1.66,-6.1 0,-2.59 0,-5.18 0,-7.77 0,-7.74 -3.47,-14.35 -10.46,-16.47 -5.4,-1.64 -11,-0.16 -14.71,3.77 -0.6,0.64 -1.12,1.1 -1.61,1.79 -0.38,0.52 -1.01,1.62 -1.45,1.96 -0.35,-1.37 -2.57,-3.78 -3.64,-4.66 -0.91,-0.74 -1.31,-1.07 -2.33,-1.69 -0.83,-0.5 -2.05,-0.92 -2.97,-1.23 -8.53,-2.88 -17.91,3.94 -18.83,13.25l-0.03 17.13 3.32 0c0,-4.63 -0.53,-15.99 0.56,-19.18 3.83,-11.23 18.2,-10.74 21.83,-0.13 1.17,3.42 0.65,14.37 0.65,19.31 0.63,0 1.26,0.01 1.88,0.02 1.89,0.02 1.43,0.28 1.43,-5.01 0,-2.9 0,-5.79 0,-8.69 0,-5.33 0.91,-8.81 5.27,-11.86 3.67,-2.57 8.82,-2.57 12.46,0.04 4.59,3.29 5.1,6.86 5.1,12.1zm57.28 9.93c-4.55,0 -8.41,-2.84 -10.17,-6.51 -2.31,-4.83 -1.46,-10.5 2.23,-14.18 9.12,-9.12 23.64,1.77 18.25,13.89 -0.63,1.41 -1.39,2.35 -2.37,3.38 -1.74,1.82 -4.53,3.42 -7.94,3.42zm-1.04 3.48c4.54,0 6.88,-0.69 10.38,-3.47 0.78,-0.62 1.3,-1.42 2.07,-1.96l0 5.43 3.32 0 0 -16.72c0,-5.45 -3.86,-10.55 -8.78,-12.96 -7.26,-3.56 -16.06,0.25 -19.29,7.25 -1.82,3.93 -2.05,8.48 -0.54,12.63 1.96,5.39 7.41,9.8 12.84,9.8zm23.87 -15.42c0,-6.6 4.7,-11.61 11.11,-12.03 4.38,-0.29 8.48,2.48 10.41,6.23 2.07,4.03 1.78,9.23 -0.85,12.87 -6.76,9.36 -20.67,4.22 -20.67,-7.08zm-3.32 -1.09l0 21.94 3.32 0 0 -10.86c1.81,1.27 4.52,5.43 10.79,5.43 2.97,0 4.37,-0.17 6.92,-1.45 10.46,-5.22 11.56,-19.89 2.3,-26.66 -5.85,-4.28 -13.71,-3.79 -18.82,1.33 -2.06,2.06 -4.51,6.18 -4.51,10.27z"/>
    <path class="fil0" d="M28.65 14.93c-0.48,0.37 -0.93,1.46 -3.36,2.87 -0.36,0.21 -1.05,0.59 -1.44,0.71 -0.86,0.28 -3.8,-1.95 -4.74,-2.98 -0.04,-0.05 -0.08,-0.1 -0.12,-0.14l-0.12 -0.12c-0.01,-0.01 -0.02,-0.03 -0.04,-0.04 -0.13,-0.24 -0.29,-0.44 -0.46,-0.7 -0.5,-0.8 -0.82,-1.46 -1.02,-2.48 -0.47,-2.41 0.79,-5.11 2.59,-6.4 1.58,-1.12 3.4,-1.51 5.32,-0.99 0.58,0.16 1.14,0.43 1.6,0.71 1.94,1.17 3.4,3.93 3.08,6.14 -0.35,2.41 -1.12,2.78 -1.3,3.42zm-11.52 1.72c0.69,0.86 2.66,2.73 3.56,2.98 -0.18,0.26 -0.62,0.37 -0.95,0.51 -4.33,1.82 -6.53,2.87 -10.53,5.64 -1.47,1.02 -2.67,2.25 -3.91,3.53 -0.29,0.3 -0.41,0.49 -0.68,0.8 -1.32,1.55 -2.51,3.95 -2.99,6 -0.69,2.98 -0.34,6.14 0.99,8.89 0.14,0.3 0.35,0.82 0.55,1.03 0.88,2.05 3.4,5.04 5.08,6.45 2.05,1.73 3.58,2.97 6.17,4.18 4.19,1.95 8.83,2.73 13.61,1.66 3.2,-0.72 6.66,-2.38 9.24,-4.42l2.91 -2.53c0.3,-0.27 0.39,-0.46 0.64,-0.75 1.27,-1.5 1.86,-2.07 2.95,-4 2.33,-4.15 3.04,-8.4 0.88,-13.25l-1 -1.79c-0.28,-0.44 -0.83,-1.27 -1.2,-1.6 -0.45,-0.77 -1.65,-1.86 -2.39,-2.53 -0.29,-0.26 -0.56,-0.52 -0.88,-0.77l-3.32 -2.37c-2.1,-1.38 -5.93,-3.21 -8.18,-4.11 -0.39,-0.15 -0.95,-0.28 -1.15,-0.57 0.9,-0.25 2.78,-2.06 3.49,-2.9 0.74,-0.87 1.9,-2.99 2.01,-4.45 0.61,-2.74 -0.85,-6.2 -2.82,-7.94 -6.96,-6.16 -17.36,1.71 -13.16,10.57 0.5,1.05 0.88,1.39 1.07,1.74zm19.9 24.45c0,2.83 -1.78,6.07 -3.4,8.2l-1.53 1.85 -2.59 2.34c-1.07,0.92 -2.78,2.05 -4.06,2.58 -2.64,1.08 -5.11,-0.58 -7.03,-2.09 -1.88,-1.48 -3.52,-3.02 -4.98,-4.97 -1.18,-1.59 -1.53,-2.36 -2.26,-4.01 -0.01,-0.02 -0.04,-0.09 -0.05,-0.11 -0.07,-0.14 -0.04,-0.09 -0.09,-0.15 -0.23,-1.17 -0.46,-1.15 -0.73,-3.16 -0.16,-1.18 -0.06,-2.36 0.27,-3.36 0.19,-0.58 0.33,-0.84 0.6,-1.32 2.45,-4.3 8.23,-4.46 10.98,-0.62l1.05 1.83c0.18,0.36 0.15,0.37 0.45,0.59 0.41,-0.29 0.93,-1.5 1.22,-2 1.64,-2.81 5.61,-4.29 8.97,-2.19 0.42,0.26 0.58,0.4 0.93,0.71 1.18,1.04 2.14,2.68 2.25,4.37 0.06,0.97 0,0.84 0,1.53zm-28.19 4.07c0.11,1.21 1.95,4.07 2.77,5.22 1.14,1.59 3.73,4.06 3.84,4.23 -0.94,-0.23 -3.79,-2.16 -4.72,-2.95 -1.08,-0.92 -2.06,-1.78 -2.93,-2.87 -0.76,-0.95 -1.24,-1.41 -1.99,-2.61 -0.34,-0.55 -0.63,-1.1 -0.95,-1.65 -1.02,-2.22 -1.8,-4.4 -1.18,-7.54 0.34,-1.72 1.14,-3.38 2.1,-4.71 1.33,-1.86 1.48,-1.88 3.3,-3.55l3.99 -2.82 5.99 -3.04c1.26,-0.59 2.67,-1.08 3.96,-1.62 0.35,-0.15 0.54,-0.24 0.89,-0.12l3.19 1.28c4.34,1.81 7.83,3.59 11.48,6.68 0.22,0.19 0.35,0.33 0.59,0.53 0.22,0.18 0.36,0.36 0.56,0.57l1.1 1.22c0.11,0.14 0.13,0.18 0.23,0.32 2.24,3.03 3.49,6.58 2.24,10.48 -0.6,1.88 -1.3,3.16 -2.4,4.76 -0.68,0.98 -1.82,2.36 -2.69,3.2 -1.4,1.36 -4.8,4.01 -6.25,4.36 0.23,-0.36 0.37,-0.36 0.66,-0.64 2.48,-2.4 4.59,-5.18 5.81,-8.53 0.4,-1.09 0.9,-2.92 0.9,-4.35 0,-1.51 -0.04,-2.09 -0.35,-3.29 -1.19,-4.59 -6.34,-7.75 -11,-6.23 -2.89,0.94 -3.49,2.27 -4.31,2.85 -0.45,-0.32 -0.94,-1.07 -2.25,-1.9 -0.89,-0.56 -1.88,-0.97 -3.02,-1.18 -2.7,-0.49 -5.03,0.4 -6.57,1.5 -0.7,0.5 -1.55,1.39 -2.06,2.1 -1.36,1.9 -2.07,4.35 -1.73,6.8 0.15,1.05 0.41,2.79 0.81,3.52zm6.6 9.45c0.29,0 0.1,-0.03 0.17,0.12l-0.17 -0.12zm16.43 0.02c0,-0.13 -0.03,-0.1 0.08,-0.1l-0.08 0.1z"/>
   </g>
  </g>
  <polygon class="fil1" points="-0,0 252.33,0 252.33,60.95 -0,60.95 "/>
 </g>
</svg>
