<?xml version="1.0" encoding="UTF-8"?>
<!DOCTYPE svg PUBLIC "-//W3C//DTD SVG 1.1//EN" "http://www.w3.org/Graphics/SVG/1.1/DTD/svg11.dtd">
<!-- Creator: CorelDRAW 2021 (64-Bit) -->
<svg xmlns="http://www.w3.org/2000/svg" xml:space="preserve" width="0.363335in" height="0.0866654in" version="1.1" style="shape-rendering:geometricPrecision; text-rendering:geometricPrecision; image-rendering:optimizeQuality; fill-rule:evenodd; clip-rule:evenodd"
viewBox="0 0 190.57 45.46"
 xmlns:xlink="http://www.w3.org/1999/xlink"
 xmlns:xodm="http://www.corel.com/coreldraw/odm/2003">
 <defs>
  <style type="text/css">
   <![CDATA[
    .fil1 {fill:none}
    .fil0 {fill:#441890}
   ]]>
  </style>
   <clipPath id="id0">
    <path d="M-0 0l190.57 0 0 45.46 -190.57 0 0 -45.46z"/>
   </clipPath>
 </defs>
 <g id="Layer_x0020_1">
  <metadata id="CorelCorpID_0Corel-Layer"/>
  <g>
  </g>
  <g style="clip-path:url(#id0)">
   <g>
    <path class="fil0" d="M165.65 10.74l0 11.18c0,3.33 1.52,6.21 3.17,7.9 2.7,2.76 4.62,3.61 8.74,3.61 3.07,0 6.14,-2 8,-4.21 0,4.28 0.28,6.28 -1.47,9.01 -1.17,1.83 -3.67,3.95 -6.52,3.95 -3.03,0 -4.81,-0.43 -7.09,-2.87 -1.2,-1.28 -2.31,-3.72 -2.31,-6.2 -0.9,0 -2.51,-0.2 -2.51,0.32 0,9.7 11.17,14.95 18.3,8.87 1.16,-0.99 0.98,-0.8 1.99,-2.16 1.25,-1.7 2.12,-4.05 2.12,-6.39l0 -23.49 -2.51 0 0 11.5c0,6.69 -6.77,11.09 -12.44,8.15 -1.94,-1 -3.44,-2.52 -4.27,-4.66 -0.43,-1.12 -0.69,-2.49 -0.69,-3.98l0 -11.02c-1.7,0 -2.51,-0.25 -2.51,0.49zm-77.74 13.29l0 9.38 2.51 0 0 -10.03c0,-2.73 0.25,-4.94 1.85,-7.01 5.4,-6.98 14.86,-2.26 15.38,4.06 0.28,3.56 0.16,9.32 0.16,12.97l2.51 0c0,-3.05 0.33,-11.01 -0.16,-13.3 -0.47,-5.51 -7.15,-11.83 -14.71,-9.2 -3.17,1.1 -3.79,2.68 -5.03,3.55l0 -8.26 -2.51 0 0 17.83zm-6.11 -0.61l-0 8.54c-0.03,1.62 -0.13,1.47 1.42,1.47 1.69,0 1.25,0.31 1.25,-4.55 0,-1.93 0,-3.86 0,-5.79 0,-5.77 -2.62,-10.7 -7.9,-12.28 -4.08,-1.23 -8.31,-0.12 -11.11,2.81 -0.46,0.48 -0.84,0.82 -1.22,1.33 -0.29,0.39 -0.76,1.21 -1.09,1.46 -0.26,-1.02 -1.94,-2.82 -2.75,-3.47 -0.69,-0.55 -0.99,-0.8 -1.76,-1.26 -0.63,-0.38 -1.55,-0.69 -2.25,-0.92 -6.44,-2.15 -13.53,2.94 -14.22,9.88l-0.02 12.78 2.51 0c0,-3.45 -0.4,-11.93 0.42,-14.3 2.89,-8.38 13.75,-8.01 16.49,-0.1 0.88,2.55 0.49,10.72 0.49,14.4 0.48,0 0.95,0.01 1.42,0.01 1.42,0.02 1.08,0.21 1.08,-3.74 0,-2.16 0,-4.32 0,-6.48 0,-3.97 0.69,-6.57 3.98,-8.85 2.77,-1.92 6.66,-1.92 9.41,0.03 3.46,2.45 3.85,5.12 3.85,9.02zm43.26 7.4c-3.44,0 -6.36,-2.12 -7.68,-4.86 -1.75,-3.6 -1.1,-7.83 1.68,-10.57 6.89,-6.8 17.86,1.32 13.79,10.36 -0.47,1.06 -1.05,1.76 -1.79,2.53 -1.31,1.35 -3.42,2.55 -6,2.55zm-0.78 2.59c3.43,0 5.19,-0.51 7.84,-2.59 0.59,-0.46 0.98,-1.06 1.57,-1.46l0 4.05 2.51 0 0 -12.47c0,-4.07 -2.92,-7.87 -6.63,-9.67 -5.48,-2.66 -12.13,0.19 -14.57,5.41 -1.37,2.93 -1.55,6.33 -0.41,9.42 1.48,4.02 5.59,7.31 9.7,7.31zm18.02 -11.5c0,-4.92 3.55,-8.65 8.39,-8.97 3.31,-0.21 6.41,1.85 7.86,4.65 1.57,3.01 1.35,6.88 -0.64,9.6 -5.1,6.98 -15.61,3.14 -15.61,-5.28zm-2.51 -0.81l0 16.36 2.51 0 0 -8.1c1.36,0.95 3.41,4.05 8.15,4.05 2.24,0 3.3,-0.13 5.23,-1.08 7.9,-3.89 8.73,-14.83 1.73,-19.89 -4.42,-3.19 -10.35,-2.83 -14.21,1 -1.55,1.54 -3.41,4.61 -3.41,7.66z"/>
    <path class="fil0" d="M21.64 11.13c-0.36,0.28 -0.7,1.09 -2.54,2.14 -0.27,0.16 -0.79,0.44 -1.09,0.53 -0.65,0.21 -2.87,-1.45 -3.58,-2.22 -0.03,-0.04 -0.06,-0.07 -0.09,-0.1l-0.09 -0.09c-0.01,-0.01 -0.02,-0.02 -0.03,-0.03 -0.1,-0.18 -0.22,-0.33 -0.35,-0.53 -0.38,-0.6 -0.62,-1.09 -0.77,-1.85 -0.36,-1.8 0.59,-3.81 1.96,-4.77 1.19,-0.84 2.57,-1.12 4.02,-0.74 0.44,0.12 0.86,0.32 1.21,0.53 1.46,0.87 2.57,2.93 2.33,4.58 -0.27,1.8 -0.85,2.07 -0.98,2.55zm-8.7 1.28c0.52,0.64 2.01,2.04 2.69,2.23 -0.14,0.19 -0.47,0.27 -0.72,0.38 -3.27,1.35 -4.94,2.14 -7.95,4.21 -1.11,0.76 -2.02,1.67 -2.95,2.63 -0.22,0.22 -0.31,0.36 -0.51,0.59 -1,1.15 -1.9,2.95 -2.25,4.47 -0.52,2.22 -0.25,4.58 0.75,6.63 0.11,0.22 0.27,0.62 0.42,0.77 0.67,1.53 2.57,3.76 3.84,4.81 1.55,1.29 2.7,2.21 4.66,3.11 3.16,1.45 6.67,2.04 10.28,1.24 2.42,-0.53 5.03,-1.78 6.98,-3.3l2.2 -1.89c0.23,-0.2 0.29,-0.34 0.48,-0.56 0.96,-1.12 1.41,-1.54 2.23,-2.98 1.76,-3.09 2.29,-6.26 0.67,-9.88l-0.75 -1.33c-0.21,-0.33 -0.63,-0.95 -0.91,-1.19 -0.34,-0.57 -1.25,-1.38 -1.8,-1.89 -0.22,-0.2 -0.42,-0.39 -0.66,-0.57l-2.51 -1.77c-1.59,-1.03 -4.47,-2.4 -6.18,-3.06 -0.29,-0.12 -0.72,-0.21 -0.87,-0.42 0.68,-0.19 2.1,-1.54 2.64,-2.16 0.56,-0.65 1.43,-2.23 1.52,-3.32 0.46,-2.04 -0.64,-4.63 -2.13,-5.93 -5.26,-4.59 -13.11,1.27 -9.94,7.89 0.37,0.78 0.67,1.03 0.81,1.3zm15.03 18.23c0,2.11 -1.35,4.52 -2.57,6.11l-1.16 1.38 -1.95 1.75c-0.81,0.69 -2.1,1.53 -3.06,1.92 -2,0.81 -3.86,-0.44 -5.31,-1.56 -1.42,-1.1 -2.66,-2.25 -3.76,-3.71 -0.9,-1.18 -1.16,-1.76 -1.71,-2.99 -0.01,-0.02 -0.03,-0.07 -0.04,-0.08 -0.05,-0.1 -0.03,-0.07 -0.07,-0.11 -0.17,-0.88 -0.35,-0.86 -0.55,-2.36 -0.12,-0.88 -0.05,-1.76 0.2,-2.51 0.15,-0.43 0.25,-0.63 0.45,-0.98 1.85,-3.21 6.22,-3.32 8.29,-0.46l0.79 1.36c0.14,0.27 0.11,0.28 0.34,0.44 0.31,-0.21 0.7,-1.12 0.92,-1.49 1.24,-2.1 4.24,-3.2 6.77,-1.63 0.32,0.19 0.43,0.3 0.7,0.53 0.89,0.78 1.62,2 1.7,3.26 0.05,0.72 0,0.63 0,1.14zm-21.3 3.04c0.08,0.9 1.47,3.04 2.09,3.89 0.86,1.19 2.82,3.03 2.9,3.15 -0.71,-0.17 -2.86,-1.61 -3.56,-2.2 -0.81,-0.68 -1.55,-1.33 -2.21,-2.14 -0.58,-0.71 -0.94,-1.05 -1.51,-1.95 -0.26,-0.41 -0.48,-0.82 -0.71,-1.23 -0.77,-1.65 -1.36,-3.28 -0.89,-5.62 0.26,-1.28 0.87,-2.52 1.59,-3.51 1.01,-1.39 1.12,-1.41 2.49,-2.65l3.02 -2.1 4.52 -2.27c0.95,-0.44 2.02,-0.81 2.99,-1.2 0.27,-0.11 0.41,-0.18 0.67,-0.09l2.41 0.95c3.27,1.35 5.91,2.68 8.67,4.98 0.17,0.14 0.26,0.25 0.45,0.4 0.17,0.14 0.27,0.26 0.42,0.42l0.83 0.91c0.08,0.1 0.09,0.13 0.17,0.24 1.7,2.26 2.63,4.9 1.69,7.82 -0.45,1.4 -0.98,2.35 -1.81,3.55 -0.51,0.73 -1.38,1.76 -2.03,2.39 -1.06,1.01 -3.62,2.99 -4.72,3.25 0.17,-0.27 0.28,-0.27 0.5,-0.48 1.88,-1.79 3.46,-3.87 4.39,-6.36 0.3,-0.81 0.68,-2.18 0.68,-3.24 0,-1.13 -0.03,-1.56 -0.27,-2.45 -0.9,-3.42 -4.79,-5.78 -8.31,-4.65 -2.18,0.7 -2.63,1.7 -3.25,2.12 -0.34,-0.24 -0.71,-0.8 -1.7,-1.42 -0.67,-0.42 -1.42,-0.72 -2.28,-0.88 -2.04,-0.37 -3.8,0.3 -4.96,1.12 -0.53,0.37 -1.17,1.04 -1.55,1.57 -1.02,1.42 -1.57,3.24 -1.31,5.07 0.11,0.78 0.31,2.08 0.61,2.62zm4.99 7.05c0.22,0 0.08,-0.02 0.13,0.09l-0.13 -0.09zm12.41 0.01c0,-0.1 -0.03,-0.08 0.06,-0.08l-0.06 0.08z"/>
   </g>
  </g>
  <polygon class="fil1" points="-0,0 190.57,0 190.57,45.46 -0,45.46 "/>
 </g>
</svg>
