<svg height="73" viewBox="0 0 73 73" width="73" xmlns="http://www.w3.org/2000/svg" xmlns:xlink="http://www.w3.org/1999/xlink"><defs><linearGradient id="a" x1="112.689855%" x2="-24.054663%" y1="17.41475%" y2="75.778702%"><stop offset="0" stop-color="#fff"/><stop offset="1" stop-color="#eff7ff"/></linearGradient><path id="b" d="m67.5406213 35.4648923c-1.1765854.0004663-2.1794169-.963529-2.167239-2.1735291.0290235-2.8837797 4.8480579-2.2229645 5.0748039-2.2712341 4.3641817-.0988709 7.4826205-3.6677866 7.4826205-8.0624146 0-4.3748073-3.537919-7.9591132-7.8111755-7.9577145l-39.3767233.017023c-4.2734833.0013991-7.6846513 3.6006289-7.6846513 7.995257 0 4.3500896 3.2946205 7.9089782 7.567877 7.9089782.4546259.4663725 1.2892782.6846348 1.2897317 2.2308929.0002267.7800079-.2120076 1.2762283-.4859168 1.6173798-.3632472.4526145-.924217.6874331-1.4949369.6883658l-13.2183892.0125921c-4.2732565.0013991-7.7166224 3.5684492-7.7166224 7.9630773 0 4.4256419 3.5050408 8.029069 7.7891812 8.0276699l13.3192911-.0030315c1.0530088-.0004663 1.937772.8588251 1.9484291 1.9415088.0006802 1.8771493-1.2892782 2.1355198-1.5160243 2.1837893l-4.5349215.2886846c-4.1802906 0-7.6753546 3.4686455-7.6739941 7.8632736.0013604 4.3948613 3.4989186 7.9243684 7.7721752 7.9229696l40.5929892-.0443057c4.2732565-.0013991 7.7685473-3.4789057 7.7671868-7.8735339-.0013605-4.3946281-3.4989187-7.8684036-7.7721752-7.8684036-.4546259-.2331863-1.2890514-.6995588-1.2897317-2.2458168.0097501-1.1922814.9491591-2.1124343 2.0729127-2.1163985l12.807752-.0335787c4.2732565-.0013992 7.6245635-3.671984 7.6245635-8.0666121 0-4.3748073-3.3562954-7.9493193-7.6295519-7.9479202z"/><filter id="c" height="105.3%" width="103.8%" x="-1.9%" y="-2.6%"><feGaussianBlur in="SourceAlpha" result="shadowBlurInner1" stdDeviation=".5"/><feOffset dx="2" dy="1" in="shadowBlurInner1" result="shadowOffsetInner1"/><feComposite in="shadowOffsetInner1" in2="SourceAlpha" k2="-1" k3="1" operator="arithmetic" result="shadowInnerInner1"/><feColorMatrix in="shadowInnerInner1" type="matrix" values="0 0 0 0 0   0 0 0 0 0   0 0 0 0 0  0 0 0 0.3 0"/></filter></defs><g fill="none" fill-rule="evenodd" transform="translate(-12 -7)"><g transform="matrix(.89100652 -.4539905 .4539905 .89100652 -14.389902 26.720174)"><use fill="url(#a)" fill-rule="evenodd" xlink:href="#b"/><use fill="#000" filter="url(#c)" xlink:href="#b"/></g><g fill="#5c2fa8" fill-rule="nonzero" transform="translate(27 18)"><circle cx="21.25" cy="6.25" r="6.25"/><path d="m12.5 46.25c0 2.0710678 1.6789322 3.75 3.75 3.75s3.75-1.6789322 3.75-3.75v-8.75c-2.5109481-.0446826-5.0162899-.2534611-7.5-.625z"/><path d="m38.75 15h-35c-2.07106781 0-3.75 1.6789322-3.75 3.75s1.67893219 3.75 3.75 3.75h8.75v9.25c-3-.5-4.75-1.25-5-1.6875.47599477-.4476829 1.05592298-.7698652 1.6875-.9375.63780685-.2608079.9653282-.9704375.75-1.625-.11252014-.3175958-.34848969-.576317-.65441659-.7175141-.3059269-.141197-.65589989-.1529108-.97058341-.0324859-2.1875.8125-3.3125 1.9375-3.3125 3.25 0 3.9375 10.1875 5 16.25 5s16.25-1.0625 16.25-5c0-1.3125-1.125-2.4375-3.3125-3.25-.3146835-.1204249-.6646565-.1087111-.9705834.0324859-.3059269.1411971-.5418965.3999183-.6544166.7175141-.2153282.6545625.1121932 1.3641921.75 1.625.5808776.2308798 1.1447728.5023848 1.6875.8125-.25.5-2 1.25-5 1.8125v-9.25h8.75c2.0710678 0 3.75-1.6789322 3.75-3.75s-1.6789322-3.75-3.75-3.75z"/><path d="m22.5 46.25c0 2.0710678 1.6789322 3.75 3.75 3.75s3.75-1.6789322 3.75-3.75v-9.375c-2.4837101.3715389-4.9890519.5803174-7.5.625z"/></g></g></svg>