<?xml version="1.0" encoding="UTF-8"?>
<!DOCTYPE svg PUBLIC "-//W3C//DTD SVG 1.1//EN" "http://www.w3.org/Graphics/SVG/1.1/DTD/svg11.dtd">
<!-- Creator: CorelDRAW 2020 (64-Bit) -->
<svg xmlns="http://www.w3.org/2000/svg" xml:space="preserve" width="0.519882in" height="0.48474in" version="1.1" style="shape-rendering:geometricPrecision; text-rendering:geometricPrecision; image-rendering:optimizeQuality; fill-rule:evenodd; clip-rule:evenodd"
viewBox="0 0 43.1 40.18"
 xmlns:xlink="http://www.w3.org/1999/xlink"
 xmlns:xodm="http://www.corel.com/coreldraw/odm/2003">
 <defs>
  <style type="text/css">
   <![CDATA[
    .fil1 {fill:#441890;fill-rule:nonzero}
    .fil0 {fill:#FFD561;fill-rule:nonzero}
   ]]>
  </style>
 </defs>
 <g id="Layer_x0020_1">
  <metadata id="CorelCorpID_0Corel-Layer"/>
  <g id="mobile-variation-tab-icon-05.svg">
   <g>
    <path class="fil0" d="M34.88 24.91c0,0 -3.25,-1.35 -3.99,-2 -0.74,-0.64 -0.98,-8.48 -1.45,-9.95l-0.97 0.54c-6.31,2.31 -9.48,-1.42 -9.48,-1.42 -1.33,0.51 -2.99,0.96 -3.25,1.79 -0.47,1.47 -0.58,8.39 -1.31,9.04 -0.74,0.64 -3.99,2 -3.99,2 -0.6,0.3 -1.32,0.28 -1.9,-0.07 0.13,0.6 0.15,1.36 0.6,1.52 0.46,0.16 0.64,-0.01 1.12,0.09 -2.27,0.68 -2.46,2.96 -1.82,3.66 0.87,0.96 3,2.13 5.9,3.24l-0.8 1.23c-0.62,0.94 -1.08,2.15 -1.08,2.15 0,0 3.52,-0.16 8.95,-1.18 0,0 4.88,1.44 10.91,1.19 0.27,-0.01 0.47,-0.27 0.38,-0.53 -0.25,-0.75 -0.76,-2.12 -1.39,-2.99 0.78,-0.3 1.28,-0.52 1.28,-0.52 2.08,-0.9 3.6,-1.81 4.3,-2.59 0.39,-0.43 0.84,-1.16 0.28,-2.62 -0.98,-0.13 -1.53,-0.31 -2.7,-1.04 -0.28,-0.31 0.09,-1.21 0.42,-1.54l-0 0zm-16.87 2.03l-0.32 0.79c0,0 -3.26,-0.82 -5.59,-1.12l0.14 -0.04c0,0 3.27,-0.87 3.92,-1.14 0.64,-0.26 1.77,-6.21 1.77,-6.21l0.56 3.04c0.29,1.57 0.13,3.19 -0.47,4.67l-0 0zm9.29 0c-0.59,-1.48 -0.76,-3.1 -0.47,-4.67l0.56 -3.04c0,0 1.12,5.94 1.77,6.21 0.37,0.15 1.63,0.51 2.62,0.78 -1.35,0.23 -4.47,0.72 -4.47,0.72l0 0z"/>
    <g>
     <path class="fil1" d="M42.54 40.18l-41.99 0c-0.19,0 -0.37,-0.1 -0.47,-0.26 -0.1,-0.16 -0.11,-0.36 -0.03,-0.53l2.52 -5.29c0.09,-0.19 0.29,-0.32 0.5,-0.32l6.97 0c0.31,0 0.55,0.25 0.55,0.55 0,0.31 -0.25,0.55 -0.55,0.55l-6.62 0 -1.99 4.18 40.23 -0 -1.99 -4.18 -6.25 0c-0.31,0 -0.55,-0.25 -0.55,-0.55 0,-0.31 0.25,-0.55 0.55,-0.55l6.6 0c0.21,0 0.41,0.12 0.5,0.32l2.52 5.29c0.08,0.17 0.07,0.37 -0.03,0.53 -0.1,0.16 -0.28,0.26 -0.47,0.26z"/>
     <g>
      <path class="fil1" d="M23.17 32.32c-0.19,0 -0.38,-0.1 -0.48,-0.28 -0.15,-0.27 -0.05,-0.6 0.21,-0.75 2.21,-1.24 5.24,-2.94 7.89,-3.14 0.3,-0.02 0.57,0.21 0.59,0.51 0.02,0.3 -0.21,0.57 -0.51,0.59 -2.41,0.18 -5.31,1.81 -7.44,3 -0.09,0.05 -0.18,0.07 -0.27,0.07l0 0z"/>
      <path class="fil1" d="M38.62 23.62c-0.54,-0.4 -1.53,-0.65 -3.24,0.38 -0.41,0.25 -0.93,0.26 -1.36,0.04 -0.01,-0.01 -0.02,-0.01 -0.03,-0.02 -1.21,-0.5 -3.3,-1.45 -3.82,-1.89 -0.3,-0.46 -0.53,-3.21 -0.67,-4.85 -0.15,-1.76 -0.28,-3.28 -0.5,-3.95 -0.19,-0.58 -0.76,-1.12 -1.77,-1.67 -0.27,-0.15 -0.6,-0.05 -0.75,0.22 -0.15,0.27 -0.05,0.6 0.22,0.75 0.41,0.22 0.69,0.41 0.87,0.57 -4.2,1.23 -7.35,-0.61 -8.68,-1.62 0.32,-0.11 0.65,-0.21 0.97,-0.29 0.24,-0.07 0.41,-0.28 0.41,-0.53l0.01 -2.03c0.5,0.27 0.97,0.42 1.24,0.42 0.28,0 0.78,-0.16 1.29,-0.45l0.02 2.05c0,0.25 0.17,0.46 0.41,0.53 0.01,0 0.86,0.24 1.85,0.61 0.06,0.02 0.13,0.04 0.2,0.04 0.22,0 0.43,-0.14 0.52,-0.36 0.11,-0.29 -0.03,-0.61 -0.32,-0.71 -0.62,-0.24 -1.19,-0.42 -1.55,-0.53l-0.02 -2.47c0.47,-0.49 0.81,-1.1 0.81,-1.79 0,-0.22 0,-0.46 0.01,-0.71 0.03,-2.07 -0,-3.71 -0.68,-4.41 -0.94,-0.97 -2.46,-0.98 -2.52,-0.98 -0.06,0 -1.58,0.01 -2.52,0.98 -0.68,0.7 -0.71,2.34 -0.68,4.41 0,0.25 0.01,0.5 0.01,0.71 0,0.71 0.36,1.34 0.85,1.83l-0.02 2.43c-1.32,0.39 -4.59,1.5 -5.06,2.98 -0.22,0.67 -0.35,2.19 -0.5,3.95 -0.14,1.65 -0.37,4.4 -0.67,4.85 -0.52,0.43 -2.61,1.38 -3.82,1.89 -0.01,0 -0.02,0.01 -0.03,0.02 -0.44,0.22 -0.96,0.2 -1.36,-0.04 -1.7,-1.03 -2.7,-0.77 -3.24,-0.38 -0.25,0.18 -0.3,0.53 -0.12,0.77 0.18,0.25 0.53,0.3 0.77,0.12 0.37,-0.27 1.1,-0.11 2.01,0.43 0.4,0.24 0.84,0.36 1.29,0.36 0.38,0 0.77,-0.09 1.13,-0.26 0.41,-0.17 3.35,-1.41 4.12,-2.08 0.54,-0.47 0.73,-2.06 1.03,-5.58 0.13,-1.55 0.27,-3.15 0.45,-3.7 0.15,-0.48 1.23,-1.1 2.54,-1.63 0.82,0.71 3.45,2.68 7.15,2.68 1,0 2.08,-0.15 3.22,-0.5 0.12,0.75 0.23,1.97 0.33,3.15 0.3,3.52 0.49,5.11 1.03,5.58 0.77,0.67 3.71,1.91 4.12,2.08 0.36,0.18 0.74,0.26 1.13,0.26 0.45,0 0.89,-0.12 1.29,-0.36 0.91,-0.55 1.64,-0.71 2.01,-0.43 0.25,0.18 0.59,0.13 0.77,-0.12 0.18,-0.25 0.13,-0.59 -0.12,-0.77l-0 -0zm-18.83 -21.87c0.6,-0.62 1.69,-0.64 1.73,-0.65 0.04,0 1.13,0.03 1.73,0.65 0.41,0.43 0.39,2.51 0.37,3.62 -0,0.26 -0.01,0.51 -0.01,0.73 0,1.09 -1.75,1.95 -2.09,1.97 -0.35,-0.02 -2.09,-0.88 -2.09,-1.97 0,-0.22 -0,-0.47 -0.01,-0.73 -0.02,-1.12 -0.05,-3.2 0.37,-3.62z"/>
      <path class="fil1" d="M32.27 36.17c-0.3,-0.8 -1.39,-3.44 -2.78,-3.56 -0.58,-0.05 -1.23,0.08 -2,0.24 -0.95,0.2 -2.03,0.42 -3.21,0.34 -0.8,-0.06 -2.3,-0.9 -3.9,-1.8 -2.42,-1.36 -5.42,-3.05 -8.08,-3.25 -0.31,-0.02 -0.57,0.21 -0.59,0.51 -0.02,0.3 0.21,0.57 0.51,0.59 2.41,0.18 5.3,1.8 7.62,3.11 1.85,1.04 3.32,1.86 4.36,1.94 1.34,0.1 2.55,-0.15 3.52,-0.36 0.68,-0.14 1.26,-0.26 1.67,-0.22 0.32,0.03 0.97,0.87 1.54,2.11 -1.84,-0.01 -6.58,-0.19 -11.85,-1.56 -6.22,-1.62 -10.24,-3.66 -11.34,-4.88 -0.38,-0.43 -0.28,-0.93 -0.13,-1.28 0.35,-0.79 1.22,-1.4 1.99,-1.4 1.99,0 6.8,1.2 6.85,1.21 0.27,0.07 0.54,-0.08 0.64,-0.32 0,-0 0.32,-0.8 0.32,-0.8 0.63,-1.58 0.81,-3.3 0.5,-4.97l-1.12 -6.08c-0.06,-0.3 -0.35,-0.5 -0.64,-0.44 -0.3,0.06 -0.5,0.34 -0.44,0.64l0.54 2.94c-0.46,2.42 -1.14,5.21 -1.49,5.73 -0.54,0.2 -2.61,0.79 -3.76,1.1 -0.52,-0.07 -1,-0.11 -1.39,-0.11 -0.93,0 -1.88,0.51 -2.52,1.28 -1.42,0.45 -2.47,0.18 -3.09,-0.13 0.43,-0.26 0.92,-0.65 1.27,-1.19 0.17,-0.26 0.09,-0.6 -0.16,-0.77 -0.26,-0.17 -0.6,-0.09 -0.77,0.16 -0.53,0.81 -1.59,1.18 -1.6,1.18 -0.18,0.06 -0.32,0.21 -0.36,0.39 -0.05,0.18 0,0.38 0.13,0.51 0.06,0.06 1.15,1.19 3.12,1.19 0.25,0 0.52,-0.02 0.8,-0.06 -0.17,0.73 -0,1.42 0.49,1.96 1.49,1.65 6.24,3.73 11.82,5.19 -2.96,0.42 -5.36,0.5 -6.55,0.51 0.18,-0.39 0.43,-0.88 0.71,-1.3 0.17,-0.25 0.1,-0.6 -0.15,-0.77 -0.25,-0.17 -0.6,-0.1 -0.77,0.15 -0.65,0.98 -1.12,2.22 -1.14,2.27 -0.06,0.17 -0.04,0.35 0.06,0.5 0.1,0.15 0.26,0.24 0.44,0.25 0.04,0 0.28,0.01 0.69,0.01 1.27,0 5.65,-0.33 9.58,-0.97 4.38,0.86 8,0.97 9.48,0.97 0.41,0 0.66,-0.01 0.7,-0.01 0.18,-0.01 0.34,-0.1 0.44,-0.25 0.1,-0.15 0.12,-0.33 0.06,-0.5l-0 0zm-17.01 -10.59c0.23,-0.09 0.7,-0.29 1.52,-3.83l0.05 0.26c0.27,1.47 0.12,2.98 -0.44,4.36l-0.14 0.35c-0.57,-0.14 -1.6,-0.38 -2.72,-0.6 0.74,-0.21 1.44,-0.42 1.72,-0.54z"/>
     </g>
     <path class="fil1" d="M40.72 26.51c-0.05,-0.18 -0.18,-0.33 -0.36,-0.39 -0.01,-0 -1.08,-0.38 -1.6,-1.18 -0.17,-0.26 -0.51,-0.33 -0.77,-0.16 -0.26,0.17 -0.33,0.51 -0.16,0.77 0.35,0.54 0.84,0.92 1.27,1.19 -0.62,0.31 -1.67,0.58 -3.09,0.13 -0.64,-0.77 -1.59,-1.28 -2.52,-1.28 -0.38,0 -0.84,0.04 -1.35,0.1 -1.24,-0.34 -3.29,-0.91 -3.81,-1.1 -0.35,-0.52 -1.03,-3.31 -1.49,-5.73l0.54 -2.94c0.06,-0.3 -0.14,-0.59 -0.44,-0.64 -0.3,-0.06 -0.59,0.14 -0.64,0.44l-1.12 6.08c-0.31,1.67 -0.13,3.39 0.5,4.97l0.14 0.34c-3.37,1.8 -7.19,0.53 -7.25,0.51 -0.29,-0.1 -0.6,0.05 -0.7,0.34 -0.1,0.29 0.05,0.6 0.34,0.7 0.11,0.04 1.56,0.53 3.5,0.53 1.51,0 3.31,-0.3 5.02,-1.32 0.62,-0.15 4.92,-1.2 6.77,-1.2 0.77,0 1.64,0.62 1.99,1.4 0.15,0.35 0.26,0.85 -0.13,1.28 -0.64,0.71 -2.1,1.58 -4.1,2.45 -0.28,0.12 -0.41,0.45 -0.29,0.73 0.09,0.21 0.29,0.33 0.51,0.33 0.07,0 0.15,-0.01 0.22,-0.05 1.52,-0.66 3.53,-1.67 4.49,-2.72 0.49,-0.54 0.66,-1.24 0.49,-1.96 0.28,0.04 0.55,0.06 0.8,0.06 1.97,0 3.06,-1.13 3.12,-1.19 0.13,-0.14 0.18,-0.33 0.13,-0.51l-0 -0zm-13.88 0.21l-0.14 -0.35c-0.56,-1.39 -0.71,-2.89 -0.44,-4.36l0.05 -0.26c0.82,3.54 1.3,3.74 1.52,3.83 0.28,0.11 0.98,0.33 1.72,0.54 -1.12,0.22 -2.14,0.46 -2.72,0.6z"/>
    </g>
   </g>
  </g>
 </g>
</svg>
