<?xml version="1.0" encoding="UTF-8"?>
<!DOCTYPE svg PUBLIC "-//W3C//DTD SVG 1.1//EN" "http://www.w3.org/Graphics/SVG/1.1/DTD/svg11.dtd">
<!-- Creator: CorelDRAW 2020 (64-Bit) -->
<svg xmlns="http://www.w3.org/2000/svg" xml:space="preserve" width="0.518346in" height="0.48063in" version="1.1" style="shape-rendering:geometricPrecision; text-rendering:geometricPrecision; image-rendering:optimizeQuality; fill-rule:evenodd; clip-rule:evenodd"
viewBox="0 0 31.14 28.87"
 xmlns:xlink="http://www.w3.org/1999/xlink"
 xmlns:xodm="http://www.corel.com/coreldraw/odm/2003">
 <defs>
  <style type="text/css">
   <![CDATA[
    .fil1 {fill:#441890;fill-rule:nonzero}
    .fil0 {fill:#FFD561;fill-rule:nonzero}
   ]]>
  </style>
 </defs>
 <g id="Layer_x0020_1">
  <metadata id="CorelCorpID_0Corel-Layer"/>
  <g id="mobile-variation-tab-icon-02.svg">
   <g>
    <path class="fil0" d="M31.1 8.03c-0.05,-0.62 -1.15,-0.23 -2.64,-0.69 -0.5,-0.15 -1.27,-1.28 -1.77,-1.3 -3.21,-0.29 -3.76,0.93 -4.05,1.11 -0.03,0.02 1.35,0.96 1.48,1.37 0.42,1.35 0.24,4.13 0.14,4.21 -0.26,0.22 -1.67,0.96 -2.36,0.24 -0.58,-0.61 -0.59,-3.33 -0.56,-3.06l-0.03 0.02c0,0 -2.06,2.86 -3.19,3.19 -1.89,0.55 -8.62,-1.09 -9.76,0.37 -2.15,0.08 -6.45,-3.18 -6.45,-3.18l-0.34 0.49c0,0 0.73,4.61 2.11,5.4 1.36,0.77 4.24,0.01 4.3,-0.01 -0.45,1.57 0.35,3.3 1.08,4.71 -0.93,-0.39 -1.67,-1.92 -1.79,-1.82 -0.86,0.78 -1.33,0.99 -1.51,1.4 -0.37,0.84 0.85,2.34 1.48,2.45 0.63,0.11 1.62,0.33 2.6,-0.13 0.01,0.85 0,1.82 0.1,2.14 0.05,0.17 0.36,0.56 0.78,1.02 0.93,-0.54 2.69,-1.11 2.2,-1.81 -0.25,-0.36 0.9,-1.54 0.9,-1.54 0,0 3.48,0.6 6.58,0.24l0.01 0.17c0,0 -0.15,2.12 -0.03,3.01 0.12,0.89 1.02,2.32 1.29,2.32l2.53 0c0.4,0 0.51,-0.79 -0.15,-1.49 -0.57,-0.6 -1,-0.32 -1.07,-1.05 -0.09,-0.91 0.83,-2.4 1.1,-3.86l-0.03 -0.2c0.42,-0.02 0.46,0.15 0.78,0.12 0.43,-0.04 1.7,-1.51 2.05,-2.34 -0.96,-0.82 -2.04,-0.97 -2.04,-0.97 0,0 0.27,-1.59 0.5,-3.15 0.12,-0.83 0.68,-2.21 1.41,-2.77 0.91,-0.69 2.48,0.23 3.37,-0.45 0.78,-0.6 1.11,-2.33 0.96,-4.18l0 0z"/>
    <g>
     <path class="fil1" d="M23.31 18.36c-0.61,-0.18 -1.1,-0.31 -1.15,-0.33 -0.21,-0.06 -0.43,0.06 -0.49,0.27 -0.06,0.21 0.06,0.43 0.27,0.49 0.03,0.01 2.82,0.79 3.61,1.11 0.18,0.07 0.43,0.25 0.69,0.49 0.08,0.07 0.17,0.11 0.27,0.11 0.11,0 0.21,-0.04 0.29,-0.13 0.15,-0.16 0.14,-0.41 -0.02,-0.56 -0.23,-0.21 -0.58,-0.5 -0.92,-0.64 -0.36,-0.15 -1.08,-0.38 -1.79,-0.59 0.05,-0.29 0.29,-1.71 0.49,-3.1 0.12,-0.82 0.67,-2.06 1.26,-2.51 0.37,-0.28 0.91,-0.34 1.48,-0.41 0.14,-0.02 0.28,-0.03 0.41,-0.05 0.22,-0.03 0.37,-0.23 0.34,-0.44 -0.03,-0.22 -0.23,-0.37 -0.44,-0.34 -0.13,0.02 -0.26,0.03 -0.39,0.05 -0.65,0.07 -1.33,0.15 -1.87,0.56 -0.86,0.66 -1.45,2.19 -1.57,3.02 -0.18,1.27 -0.4,2.56 -0.47,2.99z"/>
     <path class="fil1" d="M28.27 22.16c-0.02,-0.44 -0.34,-0.98 -0.6,-1.35 -0.13,-0.18 -0.37,-0.22 -0.55,-0.09 -0.18,0.13 -0.22,0.37 -0.09,0.55 0.33,0.46 0.45,0.78 0.46,0.92 0,0.14 0.01,0.27 0.02,0.41 0.05,0.76 0.09,1.32 -0.6,1.81 -0.11,0.08 -0.38,0.25 -0.54,0.15 -0.21,-0.13 -0.37,-0.69 -0.22,-1.6 0.06,-0.32 -0.15,-0.68 -0.67,-1.16 -0.41,-0.37 -0.95,-0.56 -1.49,-0.52 -1.38,0.12 -2.45,0.14 -2.93,0.08 -0.46,-0.06 -1.23,-1.46 -1.66,-2.72 -0.07,-0.21 -0.29,-0.32 -0.5,-0.25 -0.21,0.07 -0.32,0.29 -0.25,0.5 0.01,0.03 0.26,0.75 0.64,1.49 0.56,1.11 1.11,1.68 1.67,1.76 0.37,0.05 0.92,0.05 1.51,0.03 -0.13,0.53 -0.33,1.06 -0.52,1.58 -0.31,0.81 -0.57,1.51 -0.52,2.1 0.06,0.65 0.36,0.85 0.65,1.05 0.14,0.1 0.29,0.2 0.47,0.38 0.3,0.32 0.38,0.56 0.4,0.68l-2.34 0c-0.25,-0.22 -0.9,-1.27 -0.99,-1.97 -0.09,-0.71 -0,-2.3 0.03,-2.78 0.06,-0.01 0.12,-0.02 0.18,-0.03 0.21,-0.04 0.36,-0.24 0.32,-0.46 -0.04,-0.21 -0.24,-0.36 -0.46,-0.32 -2.45,0.42 -5.25,-0.22 -6.33,-0.52 0.24,-0.46 0.45,-0.97 0.59,-1.55 0.05,-0.21 -0.08,-0.42 -0.29,-0.48 -0.21,-0.05 -0.42,0.08 -0.48,0.29 -0.24,1 -0.75,1.82 -1.17,2.48 -0.41,0.66 -0.71,1.13 -0.64,1.59 0.14,0.97 1.6,2.62 2.32,2.62 0,0 0.01,0 0.01,-0 0.33,-0.01 0.63,0.12 0.88,0.4 0.22,0.24 0.34,0.54 0.4,0.73 -1.75,0.08 -2.4,0.1 -2.63,0.1 -0.55,-0.3 -3.01,-2.8 -3.19,-3.25 -0.07,-0.22 -0.07,-1.01 -0.08,-1.65 -0.01,-0.96 -0.02,-1.56 -0.12,-1.85 -0.06,-0.17 -0.19,-0.33 -0.42,-0.59 -0.72,-0.85 -2.21,-2.63 -1.1,-5.16 0.09,-0.2 -0,-0.43 -0.2,-0.52 -0.2,-0.09 -0.43,0 -0.52,0.2 -0.09,0.21 -0.17,0.41 -0.23,0.61 -0.91,0.21 -2.86,0.52 -3.79,-0.01 -0.88,-0.5 -1.64,-3.4 -1.91,-5.11 -0.03,-0.21 -0.24,-0.36 -0.45,-0.33 -0.21,0.03 -0.36,0.24 -0.33,0.45 0.08,0.49 0.8,4.83 2.3,5.68 0.52,0.3 1.23,0.39 1.93,0.39 0.78,0 1.55,-0.12 2.06,-0.22 -0.09,0.65 -0.04,1.24 0.09,1.78 -0.26,0.63 -1.2,0.83 -1.96,0.99 -0.62,0.13 -1.07,0.23 -1.23,0.59 -0.23,0.51 -0.17,1.21 -0.11,2.02 0.06,0.75 0.12,1.6 -0.01,2.5 -0.07,0.47 -0.26,0.7 -0.48,0.98 -0.32,0.4 -0.69,0.86 -0.47,1.87 0.04,0.18 0.19,0.5 0.75,0.63 0.15,0.04 0.33,0.06 0.53,0.06 0.72,0 1.66,-0.26 2.24,-0.98 0.71,-0.88 0.75,-2.51 0.77,-3.49 0,-0.15 0.01,-0.31 0.01,-0.43 0.13,0 0.33,0.03 0.49,0.06 0.39,0.06 0.88,0.13 1.37,0.05 0.01,0.88 0.02,1.44 0.11,1.73 0.14,0.44 1.17,1.52 1.78,2.13 1.67,1.67 1.95,1.67 2.1,1.67 0.23,0 1.22,-0.04 2.94,-0.11l0.09 -0c0.18,-0.01 0.49,-0.15 0.47,-0.63 -0.03,-0.73 -0.76,-2.07 -2.06,-2.07 -0.01,0 -0.02,0 -0.04,0 -0.32,-0.1 -1.45,-1.23 -1.55,-1.95 -0.03,-0.17 0.27,-0.65 0.53,-1.06 0.09,-0.14 0.18,-0.29 0.28,-0.45 0.75,0.22 2.78,0.74 4.95,0.74 0.31,0 0.62,-0.01 0.93,-0.03 -0.04,0.62 -0.11,2.07 -0.01,2.79 0.11,0.81 1.03,2.66 1.69,2.66l2.53 0c0.28,0 0.51,-0.15 0.62,-0.41 0.19,-0.43 -0.03,-1.05 -0.55,-1.61 -0.23,-0.25 -0.44,-0.39 -0.6,-0.49 -0.24,-0.16 -0.28,-0.19 -0.31,-0.47 -0.04,-0.41 0.21,-1.06 0.47,-1.75 0.22,-0.59 0.47,-1.25 0.6,-1.91 0.27,-0.02 0.53,-0.04 0.78,-0.06 0.33,-0.03 0.64,0.08 0.89,0.31 0.31,0.29 0.4,0.44 0.42,0.48 -0.19,1.13 0.03,2.01 0.58,2.36 0.12,0.07 0.3,0.15 0.54,0.15 0.24,0 0.53,-0.08 0.88,-0.33 1.05,-0.75 0.98,-1.68 0.93,-2.5 -0.01,-0.13 -0.02,-0.25 -0.02,-0.38zm-21.24 0.34c-0.53,-0.08 -0.98,-0.14 -1.25,0.18 -0.13,0.16 -0.14,0.36 -0.15,0.95 -0.02,0.82 -0.06,2.34 -0.6,3.01 -0.38,0.47 -1.06,0.67 -1.53,0.69 -0.34,0.02 -0.55,-0.05 -0.61,-0.1 -0.13,-0.61 0.04,-0.83 0.32,-1.17 0.24,-0.3 0.55,-0.68 0.65,-1.36 0.15,-0.98 0.08,-1.92 0.02,-2.67 -0.05,-0.67 -0.09,-1.25 0.03,-1.6 0.12,-0.06 0.45,-0.13 0.69,-0.18 0.65,-0.14 1.54,-0.33 2.11,-0.86 0.38,0.83 0.9,1.46 1.23,1.85 0.11,0.13 0.24,0.29 0.28,0.35 0.04,0.13 0.06,0.52 0.07,0.93 -0.39,0.09 -0.84,0.03 -1.25,-0.03l-0 -0z"/>
     <path class="fil1" d="M13.69 19.38c0,0 0.01,0 0.01,0 0.21,0 0.39,-0.17 0.39,-0.39 0.01,-0.25 -0.01,-0.51 -0.04,-0.77 -0.03,-0.22 -0.22,-0.37 -0.44,-0.35 -0.22,0.03 -0.37,0.22 -0.35,0.44 0.03,0.22 0.04,0.44 0.03,0.66 -0,0.22 0.17,0.4 0.39,0.4l0 -0z"/>
     <path class="fil1" d="M30.31 8c-0.05,-0.69 -0.76,-0.71 -1.38,-0.73 -0.47,-0.01 -1.06,-0.03 -1.68,-0.22 -0.14,-0.04 -0.43,-0.31 -0.64,-0.5 -0.4,-0.37 -0.78,-0.72 -1.2,-0.75 -1.7,-0.1 -2.45,-0.01 -3.25,0.68 -1.1,0.08 -2.29,1.51 -2.42,2.1 -0.03,0.13 -0.03,0.6 0.01,1.2 -0.32,0.44 -0.75,0.98 -1.19,1.48 -5.48,0.08 -10.07,-1.72 -13.65,-5.35 -2.72,-2.77 -3.81,-5.62 -3.82,-5.66 -0.08,-0.2 -0.3,-0.31 -0.51,-0.23 -0.2,0.08 -0.31,0.3 -0.23,0.51 0.05,0.12 1.14,3.02 3.98,5.91 2.49,2.53 6.81,5.49 13.48,5.61 -0.38,0.36 -0.73,0.62 -0.98,0.7 -0.69,0.2 -2.15,0.06 -3.56,-0.07 -2.34,-0.22 -4.56,-0.44 -5.48,0.43 -1.73,-0.09 -5.5,-2.57 -6.84,-3.55 -0.18,-0.13 -0.42,-0.09 -0.55,0.09 -0.13,0.18 -0.09,0.42 0.09,0.55 0.21,0.15 5.12,3.7 7.41,3.7 0.03,0 0.05,-0 0.08,-0 0.12,-0 0.22,-0.06 0.3,-0.15 0.54,-0.7 2.97,-0.47 4.92,-0.28 1.55,0.15 3.01,0.29 3.85,0.04 0.49,-0.14 1.09,-0.65 1.65,-1.23 0.72,1.59 2.35,3.09 4.01,3.61 0.04,0.01 0.08,0.02 0.12,0.02 0.17,0 0.32,-0.11 0.38,-0.28 0.07,-0.21 -0.05,-0.43 -0.26,-0.49 -1.36,-0.43 -3.08,-1.85 -3.66,-3.5 0.22,-0.25 0.42,-0.49 0.59,-0.71 0.14,0.98 0.39,1.94 0.8,2.16 0.32,0.18 0.98,0.32 1.62,0.32 0.52,0 1.03,-0.1 1.34,-0.35 0.24,-0.2 0.45,-0.64 0.36,-2.52 -0.05,-0.97 -0.16,-1.88 -0.17,-1.92 -0.03,-0.22 -0.22,-0.37 -0.44,-0.34 -0.22,0.03 -0.37,0.22 -0.34,0.44 0.19,1.55 0.26,3.4 0.07,3.74 -0.35,0.25 -1.58,0.18 -2.04,-0.06 -0.07,-0.09 -0.28,-0.56 -0.45,-1.79 -0.13,-0.97 -0.15,-1.73 -0.12,-1.86 0.08,-0.36 1.1,-1.49 1.74,-1.49 0.01,0 0.03,0 0.04,0 0,0 0,-0 0.01,-0 0.02,0 0.04,-0 0.06,-0 0,-0 0.01,-0 0.01,-0 0.07,-0.01 0.14,-0.04 0.19,-0.08 0,-0 0.01,-0.01 0.01,-0.01 0,-0 0.01,-0 0.01,-0.01 0.58,-0.54 0.99,-0.68 2.78,-0.58 0.14,0.01 0.51,0.36 0.71,0.54 0.32,0.3 0.63,0.58 0.94,0.68 0.73,0.22 1.4,0.24 1.89,0.25 0.21,0.01 0.5,0.01 0.62,0.05 0.13,1.82 -0.16,3.24 -0.76,3.7 -0.17,0.13 -0.21,0.38 -0.07,0.55 0.08,0.1 0.19,0.15 0.31,0.15 0.08,0 0.17,-0.03 0.24,-0.08 1.2,-0.92 1.15,-3.41 1.07,-4.43l0 0z"/>
     <path class="fil1" d="M25.1 8.47l0.09 0.07c0.07,0.06 0.16,0.08 0.24,0.08 0.12,0 0.23,-0.05 0.31,-0.15 0.13,-0.17 0.1,-0.42 -0.07,-0.55l-0.09 -0.07c-0.17,-0.13 -0.42,-0.1 -0.55,0.07 -0.13,0.17 -0.1,0.42 0.07,0.55z"/>
    </g>
   </g>
  </g>
 </g>
</svg>
