<?xml version="1.0" encoding="UTF-8"?>
<!DOCTYPE svg PUBLIC "-//W3C//DTD SVG 1.1//EN" "http://www.w3.org/Graphics/SVG/1.1/DTD/svg11.dtd">
<!-- Creator: CorelDRAW 2020 (64-Bit) -->
<svg xmlns="http://www.w3.org/2000/svg" xml:space="preserve" width="0.518331in" height="0.512374in" version="1.1" style="shape-rendering:geometricPrecision; text-rendering:geometricPrecision; image-rendering:optimizeQuality; fill-rule:evenodd; clip-rule:evenodd"
viewBox="0 0 34.06 33.67"
 xmlns:xlink="http://www.w3.org/1999/xlink"
 xmlns:xodm="http://www.corel.com/coreldraw/odm/2003">
 <defs>
  <style type="text/css">
   <![CDATA[
    .fil0 {fill:none}
    .fil2 {fill:#441890;fill-rule:nonzero}
    .fil1 {fill:#FFD561;fill-rule:nonzero}
   ]]>
  </style>
 </defs>
 <g id="Layer_x0020_1">
  <metadata id="CorelCorpID_0Corel-Layer"/>
  <rect class="fil0" x="-0" y="-0" width="34.06" height="33.67"/>
  <g id="_1718692048992">
   <path class="fil1" d="M18.2 5.42c-6.3,0 -11.4,5.11 -11.4,11.41 0,6.3 5.1,11.41 11.4,11.41 6.3,0 11.4,-5.11 11.4,-11.41 0,-6.3 -5.1,-11.41 -11.4,-11.41zm-6.23 9.98c-0.82,0 -1.49,-0.67 -1.49,-1.49 0,-0.82 0.67,-1.49 1.49,-1.49 0.82,0 1.49,0.67 1.49,1.49 0,0.82 -0.67,1.49 -1.49,1.49zm10.11 0c-0.82,0 -1.49,-0.67 -1.49,-1.49 0,-0.82 0.67,-1.49 1.49,-1.49 0.82,0 1.49,0.67 1.49,1.49 0,0.82 -0.67,1.49 -1.49,1.49z"/>
   <path class="fil2" d="M16.56 28.95c-6.67,0 -12.1,-5.44 -12.1,-12.12 0,-6.68 5.43,-12.12 12.1,-12.12 6.67,0 12.1,5.44 12.1,12.12 0,6.68 -5.43,12.12 -12.1,12.12zm0 -22.83c-5.9,0 -10.69,4.8 -10.69,10.71 0,5.9 4.8,10.71 10.69,10.71 5.9,0 10.69,-4.8 10.69,-10.71 0,-5.9 -4.8,-10.71 -10.69,-10.71z"/>
   <path class="fil2" d="M16.56 23.91c-2.61,0 -5.01,-1.32 -6.41,-3.54 -0.21,-0.33 -0.11,-0.77 0.22,-0.97 0.33,-0.21 0.76,-0.11 0.97,0.22 1.14,1.81 3.09,2.88 5.21,2.88 2.13,0 4.08,-1.08 5.21,-2.88 0.21,-0.33 0.64,-0.43 0.97,-0.22 0.33,0.21 0.43,0.64 0.22,0.97 -1.4,2.22 -3.79,3.54 -6.41,3.54l0 0z"/>
   <path class="fil2" d="M21.62 16.1c-1.21,0 -2.19,-0.99 -2.19,-2.2 0,-1.21 0.98,-2.2 2.19,-2.2 1.21,0 2.19,0.99 2.19,2.2 0,1.21 -0.98,2.2 -2.19,2.2zm0 -2.98c-0.43,0 -0.78,0.35 -0.78,0.78 0,0.43 0.35,0.78 0.78,0.78 0.43,0 0.78,-0.35 0.78,-0.78 0,-0.43 -0.35,-0.78 -0.78,-0.78z"/>
   <path class="fil2" d="M11.5 16.1c-1.21,0 -2.19,-0.99 -2.19,-2.2 0,-1.21 0.98,-2.2 2.19,-2.2 1.21,0 2.19,0.99 2.19,2.2 0,1.21 -0.98,2.2 -2.19,2.2zm0 -2.98c-0.43,0 -0.78,0.35 -0.78,0.78 0,0.43 0.35,0.78 0.78,0.78 0.43,0 0.78,-0.35 0.78,-0.78 0,-0.43 -0.35,-0.78 -0.78,-0.78z"/>
  </g>
 </g>
</svg>
