<?xml version="1.0" encoding="UTF-8"?>
<!DOCTYPE svg PUBLIC "-//W3C//DTD SVG 1.1//EN" "http://www.w3.org/Graphics/SVG/1.1/DTD/svg11.dtd">
<!-- Creator: CorelDRAW 2020 (64-Bit) -->
<svg xmlns="http://www.w3.org/2000/svg" xml:space="preserve" width="0.439516in" height="0.517425in" version="1.1" style="shape-rendering:geometricPrecision; text-rendering:geometricPrecision; image-rendering:optimizeQuality; fill-rule:evenodd; clip-rule:evenodd"
viewBox="0 0 17.2 20.25"
 xmlns:xlink="http://www.w3.org/1999/xlink"
 xmlns:xodm="http://www.corel.com/coreldraw/odm/2003">
 <defs>
  <style type="text/css">
   <![CDATA[
    .fil1 {fill:#441890;fill-rule:nonzero}
    .fil0 {fill:#FFD561;fill-rule:nonzero}
   ]]>
  </style>
 </defs>
 <g id="Layer_x0020_1">
  <metadata id="CorelCorpID_0Corel-Layer"/>
  <g id="mobile-variation-tab-icon-01.svg">
   <g>
    <path class="fil0" d="M7.64 2.13c-2.46,0 -4.45,1.99 -4.45,4.45 0,2.46 1.99,4.45 4.45,4.45 2.46,0 4.45,-1.99 4.45,-4.45 0,-2.46 -1.99,-4.45 -4.45,-4.45zm-2.43 3.89c-0.32,0 -0.58,-0.26 -0.58,-0.58 0,-0.32 0.26,-0.58 0.58,-0.58 0.32,0 0.58,0.26 0.58,0.58 0,0.32 -0.26,0.58 -0.58,0.58zm3.95 0c-0.32,0 -0.58,-0.26 -0.58,-0.58 0,-0.32 0.26,-0.58 0.58,-0.58 0.32,0 0.58,0.26 0.58,0.58 0,0.32 -0.26,0.58 -0.58,0.58z"/>
    <g>
     <path class="fil1" d="M9.92 20.25c-0.14,0 -0.26,-0.1 -0.27,-0.24 -0.01,-0.09 -0.29,-2.33 0.43,-3.39 0.3,-0.45 1.08,-0.43 2.06,-0.4 1.16,0.03 2.47,0.07 2.76,-0.72 0.04,-0.11 0.06,-0.24 0.08,-0.37 0.06,-0.38 0.13,-0.85 0.71,-1.18 0,-0.09 -0.08,-0.31 -0.18,-0.47 -0.04,-0.07 -0.05,-0.15 -0.03,-0.22 0.02,-0.07 0.07,-0.14 0.14,-0.17 0.17,-0.08 0.35,-0.23 0.38,-0.3 0,-0.06 -0.09,-0.21 -0.16,-0.33 -0.13,-0.21 -0.29,-0.45 -0.28,-0.73 0.01,-0.26 0.26,-0.42 0.61,-0.64 0.14,-0.09 0.39,-0.24 0.48,-0.34 -0.18,-0.23 -0.34,-0.43 -0.5,-0.63 -0.55,-0.67 -0.98,-1.2 -1.37,-2.22 -0.09,-0.24 0.01,-0.52 0.12,-0.86 0.09,-0.28 0.2,-0.6 0.16,-0.81 -0.18,-0.98 -0.51,-1.86 -0.98,-2.6 -0.08,-0.13 -0.04,-0.3 0.09,-0.38 0.13,-0.08 0.3,-0.04 0.38,0.09 0.5,0.81 0.86,1.75 1.05,2.8 0.07,0.35 -0.06,0.74 -0.18,1.09 -0.06,0.17 -0.14,0.42 -0.12,0.49 0.35,0.93 0.74,1.4 1.28,2.06 0.17,0.21 0.35,0.43 0.55,0.69 0.08,0.11 0.11,0.23 0.09,0.36 -0.06,0.3 -0.39,0.51 -0.75,0.74 -0.11,0.07 -0.28,0.17 -0.35,0.23 0.02,0.11 0.1,0.24 0.19,0.37 0.13,0.2 0.27,0.42 0.25,0.68 -0.02,0.25 -0.24,0.45 -0.43,0.59 0.09,0.19 0.17,0.45 0.11,0.67 -0.04,0.14 -0.12,0.25 -0.25,0.31 -0.36,0.2 -0.4,0.45 -0.45,0.79 -0.02,0.16 -0.05,0.32 -0.11,0.48 -0.43,1.16 -2.02,1.11 -3.29,1.08 -0.61,-0.02 -1.45,-0.04 -1.59,0.16 -0.5,0.74 -0.41,2.43 -0.34,3.02 0.02,0.15 -0.09,0.29 -0.24,0.31 -0.01,0 -0.02,0 -0.03,0l0 0z"/>
     <path class="fil1" d="M3.15 19.9c-0.04,0 -0.08,-0.01 -0.12,-0.03 -0.14,-0.07 -0.19,-0.23 -0.13,-0.37 0.02,-0.04 1.8,-3.78 0.12,-5.91 -1.54,-1.96 -2.46,-3.69 -2.83,-5.3 -0.29,-1.26 -0.24,-2.43 0.16,-3.7 0.55,-1.76 1.7,-3.09 3.32,-3.85 2.21,-1.04 5.21,-0.97 8.01,0.19 0.67,0.28 1.64,0.83 2.14,1.49 0.09,0.12 0.07,0.29 -0.05,0.39 -0.12,0.09 -0.29,0.07 -0.39,-0.05 -0.41,-0.53 -1.26,-1.05 -1.92,-1.32 -2.66,-1.1 -5.49,-1.17 -7.57,-0.2 -1.5,0.7 -2.51,1.89 -3.02,3.52 -1.03,3.29 0.73,6.14 2.58,8.5 0.79,1.01 1.03,2.45 0.69,4.19 -0.25,1.28 -0.72,2.27 -0.74,2.31 -0.05,0.1 -0.15,0.16 -0.25,0.16l0 -0z"/>
     <path class="fil1" d="M6.99 11.31c-2.61,0 -4.73,-2.12 -4.73,-4.73 0,-2.61 2.12,-4.73 4.73,-4.73 2.61,0 4.73,2.12 4.73,4.73 0,2.61 -2.12,4.73 -4.73,4.73zm0 -8.9c-2.3,0 -4.17,1.87 -4.17,4.17 0,2.3 1.87,4.17 4.17,4.17 2.3,0 4.17,-1.87 4.17,-4.17 0,-2.3 -1.87,-4.17 -4.17,-4.17z"/>
     <path class="fil1" d="M6.99 9.34c-1.02,0 -1.96,-0.52 -2.5,-1.38 -0.08,-0.13 -0.04,-0.3 0.09,-0.38 0.13,-0.08 0.3,-0.04 0.38,0.09 0.44,0.7 1.21,1.12 2.04,1.12 0.83,0 1.59,-0.42 2.04,-1.12 0.08,-0.13 0.25,-0.17 0.38,-0.09 0.13,0.08 0.17,0.25 0.09,0.38 -0.55,0.86 -1.48,1.38 -2.5,1.38l0 0z"/>
     <g>
      <path class="fil1" d="M8.97 6.3c-0.47,0 -0.86,-0.38 -0.86,-0.86 0,-0.47 0.38,-0.86 0.86,-0.86 0.47,0 0.86,0.38 0.86,0.86 0,0.47 -0.38,0.86 -0.86,0.86zm0 -1.16c-0.17,0 -0.31,0.14 -0.31,0.31 0,0.17 0.14,0.31 0.31,0.31 0.17,0 0.31,-0.14 0.31,-0.31 0,-0.17 -0.14,-0.31 -0.31,-0.31z"/>
      <path class="fil1" d="M5.02 6.3c-0.47,0 -0.86,-0.38 -0.86,-0.86 0,-0.47 0.38,-0.86 0.86,-0.86 0.47,0 0.86,0.38 0.86,0.86 0,0.47 -0.38,0.86 -0.86,0.86zm0 -1.16c-0.17,0 -0.31,0.14 -0.31,0.31 0,0.17 0.14,0.31 0.31,0.31 0.17,0 0.31,-0.14 0.31,-0.31 0,-0.17 -0.14,-0.31 -0.31,-0.31z"/>
     </g>
    </g>
   </g>
  </g>
 </g>
</svg>
