<?xml version="1.0" encoding="UTF-8"?>
<!DOCTYPE svg PUBLIC "-//W3C//DTD SVG 1.1//EN" "http://www.w3.org/Graphics/SVG/1.1/DTD/svg11.dtd">
<!-- Creator: CorelDRAW 2020 (64-Bit) -->
<svg xmlns="http://www.w3.org/2000/svg" xml:space="preserve" width="0.516067in" height="0.423157in" version="1.1" style="shape-rendering:geometricPrecision; text-rendering:geometricPrecision; image-rendering:optimizeQuality; fill-rule:evenodd; clip-rule:evenodd"
viewBox="0 0 25.2 20.66"
 xmlns:xlink="http://www.w3.org/1999/xlink"
 xmlns:xodm="http://www.corel.com/coreldraw/odm/2003">
 <defs>
  <style type="text/css">
   <![CDATA[
    .fil1 {fill:#441890;fill-rule:nonzero}
    .fil0 {fill:#FFD561;fill-rule:nonzero}
   ]]>
  </style>
 </defs>
 <g id="Layer_x0020_1">
  <metadata id="CorelCorpID_0Corel-Layer"/>
  <g id="mobile-variation-tab-icon-03_x0020__x0028_1_x0029_.svg">
   <g>
    <polygon class="fil0" points="22.89,3.17 19.13,3.4 18.66,1.71 17.1,2.16 17.68,4.35 17.16,4.49 16.82,3.61 16.03,3.67 16.47,9.79 23.33,9.29 "/>
    <g>
     <path class="fil1" d="M23.8 0.02l-2.52 -0.01 -0 0c-0.19,0 -0.35,0.16 -0.35,0.35 -0,0.19 0.16,0.35 0.35,0.35l2.52 0.01c0.38,0 0.69,0.35 0.69,0.79l0 16.38c0,0.43 -0.3,0.78 -0.67,0.79l-10.17 -0.08c-0.17,0.01 -0.33,-0.06 -0.46,-0.19 -0.15,-0.15 -0.24,-0.37 -0.24,-0.6l0 -0.87c0.48,0.06 0.68,0.23 0.68,0.23 0.14,0.14 0.36,0.14 0.5,-0 0.14,-0.14 0.14,-0.36 -0,-0.5 -0.04,-0.04 -0.39,-0.36 -1.18,-0.44l0 -2.19c0.48,0.06 0.68,0.23 0.68,0.23 0.14,0.14 0.36,0.14 0.5,-0 0.14,-0.14 0.14,-0.36 -0,-0.5 -0.04,-0.04 -0.39,-0.36 -1.18,-0.44l0 -2.19c0.48,0.06 0.68,0.23 0.68,0.23 0.14,0.14 0.36,0.14 0.5,-0 0.14,-0.14 0.14,-0.36 -0,-0.5 -0.04,-0.04 -0.39,-0.36 -1.18,-0.44l0 -2.19c0.48,0.06 0.68,0.23 0.68,0.23 0.14,0.14 0.36,0.14 0.5,-0 0.14,-0.14 0.14,-0.36 -0,-0.5 -0.04,-0.04 -0.39,-0.36 -1.18,-0.44l0 -2.19c0.48,0.06 0.68,0.23 0.68,0.23 0,0 0,0 0,-0 0.14,0.14 0.36,0.14 0.5,-0 0.14,-0.14 0.14,-0.36 -0,-0.5 -0.04,-0.04 -0.39,-0.36 -1.18,-0.44l0 -2.19c0.48,0.06 0.68,0.23 0.68,0.23 0.14,0.14 0.36,0.14 0.5,-0 0.14,-0.14 0.14,-0.36 -0,-0.5 -0.04,-0.04 -0.39,-0.36 -1.18,-0.44l0 -0.24c0,-0.23 0.09,-0.44 0.24,-0.59 0.13,-0.13 0.29,-0.19 0.45,-0.19l0 -0 6.04 0.01 0 0c0.19,0 0.35,-0.16 0.35,-0.35 0,-0.2 -0.16,-0.35 -0.35,-0.35l-6.04 -0.01c-0,0 -0,0 -0,0 -0.36,0 -0.69,0.14 -0.95,0.4 -0.03,0.03 -0.06,0.07 -0.09,0.1 -0.03,-0.03 -0.06,-0.07 -0.09,-0.1 -0.26,-0.26 -0.6,-0.4 -0.95,-0.4 -0,0 -0,0 -0,0l-10.16 0.02c-0.77,0 -1.39,0.67 -1.39,1.49l0 17.65c0,0.81 0.62,1.48 1.38,1.49l10.15 -0.08c0.36,0.01 0.7,-0.13 0.97,-0.39 0.03,-0.03 0.07,-0.07 0.1,-0.11 0.03,0.04 0.06,0.07 0.1,0.11 0.26,0.25 0.59,0.39 0.93,0.39 0.01,0 0.02,-0 0.02,-0l10.17 0.08c0.76,-0.01 1.37,-0.68 1.37,-1.49l0 -17.65c0,-0.82 -0.62,-1.49 -1.39,-1.49l0 0zm-19.27 19.34l0 0 7 -0.05c0.25,0.01 0.5,-0.06 0.71,-0.19 -0.01,0.22 -0.09,0.42 -0.24,0.57 -0.13,0.12 -0.28,0.19 -0.46,0.19 -0,0 -0.01,0 -0.01,-0l-10.15 0.08c-0.37,-0.01 -0.66,-0.34 -0.68,-0.76 0.2,0.12 0.43,0.19 0.67,0.2l1.72 -0.01c0.19,-0 0.35,-0.16 0.35,-0.36 -0,-0.19 -0.16,-0.35 -0.35,-0.35 -0,0 -0,0 -0,0l-1.71 0.01c-0.37,-0.01 -0.68,-0.36 -0.68,-0.79l0 -16.38c0,-0.43 0.31,-0.79 0.69,-0.79l10.16 -0.02 0 0c0.17,0 0.33,0.07 0.45,0.19 0.15,0.15 0.24,0.37 0.24,0.59l0 0.24c-0.83,0.07 -1.2,0.4 -1.24,0.45 -0.14,0.14 -0.14,0.36 -0.01,0.5 0.07,0.07 0.16,0.11 0.25,0.11 0.09,0 0.18,-0.03 0.24,-0.1 0,-0 0.22,-0.19 0.75,-0.25l0 2.19c-0.83,0.07 -1.2,0.4 -1.24,0.45 -0.14,0.14 -0.14,0.36 -0.01,0.5 0.07,0.07 0.16,0.11 0.25,0.11 0.09,0 0.18,-0.03 0.24,-0.1 0,-0 0.22,-0.19 0.75,-0.25l0 2.19c-0.83,0.07 -1.2,0.4 -1.24,0.45 -0.14,0.14 -0.14,0.36 -0.01,0.5 0.07,0.07 0.16,0.11 0.25,0.11 0.09,0 0.18,-0.03 0.24,-0.1 0,-0 0.22,-0.19 0.75,-0.25l0 2.19c-0.83,0.07 -1.2,0.4 -1.24,0.45 -0.14,0.14 -0.14,0.36 -0.01,0.5 0.07,0.07 0.16,0.11 0.25,0.11 0.09,0 0.18,-0.03 0.24,-0.1 0,-0 0.22,-0.19 0.75,-0.25l0 2.19c-0.83,0.07 -1.2,0.4 -1.24,0.45 -0.14,0.14 -0.14,0.36 -0.01,0.5 0.07,0.07 0.16,0.11 0.25,0.11 0.09,0 0.18,-0.03 0.24,-0.1 0,-0 0.22,-0.19 0.75,-0.25l0 2.19c-0.83,0.07 -1.2,0.4 -1.24,0.45 -0.14,0.14 -0.14,0.36 -0.01,0.5 0.07,0.07 0.16,0.11 0.25,0.11 0.09,0 0.18,-0.03 0.24,-0.1 0,-0 0.22,-0.19 0.75,-0.25l0 0.88c0,0.23 -0.09,0.45 -0.24,0.6 -0.13,0.13 -0.29,0.19 -0.47,0.19l-7.01 0.05c-0.19,0 -0.35,0.16 -0.35,0.36 0,0.19 0.16,0.35 0.35,0.35l0 -0zm19.29 0.59l-10.17 -0.08c-0.17,0 -0.33,-0.06 -0.46,-0.19 -0.15,-0.14 -0.23,-0.35 -0.24,-0.57 0.21,0.13 0.45,0.2 0.7,0.19l10.17 0.08c0.24,-0 0.47,-0.08 0.67,-0.2 -0.01,0.41 -0.31,0.75 -0.67,0.76l0 0z"/>
     <path class="fil1" d="M22.41 2.79c-0.07,-0.06 -0.16,-0.09 -0.26,-0.09l-3.59 0.26 -0.34 -1.23c-0.03,-0.09 -0.09,-0.17 -0.17,-0.21 -0.08,-0.05 -0.18,-0.06 -0.27,-0.03l-1.33 0.39c-0.18,0.05 -0.29,0.24 -0.24,0.43l0.22 0.82 -1.14 0.08c-0.09,0.01 -0.18,0.05 -0.24,0.12 -0.06,0.07 -0.09,0.16 -0.08,0.26l0.44 6.12c0.01,0.19 0.17,0.33 0.35,0.33 0.01,0 0.02,-0 0.03,-0l6.86 -0.5c0.09,-0.01 0.18,-0.05 0.24,-0.12 0.06,-0.07 0.09,-0.16 0.09,-0.26l-0.44 -6.12c-0.01,-0.09 -0.05,-0.18 -0.12,-0.24l0 0zm-4.77 -0.52l0.44 1.6 -0.67 0.19 -0.42 -1.6 0.65 -0.19zm-1.55 7.03l-0.39 -5.42 0.92 -0.07 0.2 0.77c0.02,0.09 0.08,0.17 0.17,0.22 0.05,0.03 0.11,0.05 0.17,0.05 0.03,0 0.07,-0 0.1,-0.01l1.35 -0.39c0.19,-0.05 0.29,-0.25 0.24,-0.43l-0.1 -0.36 3.1 -0.23 0.39 5.42 -6.16 0.45z"/>
     <path class="fil1" d="M2.49 4.48l0.68 -0.1c0.11,-0.02 0.21,-0.04 0.32,-0.06 0.14,-0.03 0.35,-0.07 0.43,-0.06l0.05 0.03c0.28,0.18 0.49,0.29 1.06,0.22 0.11,-0.01 0.23,-0.03 0.34,-0.05 0.32,-0.05 0.87,-0.13 0.98,-0.05 0.31,0.27 0.6,0.36 0.88,0.36 0.34,-0 0.64,-0.14 0.9,-0.25 0.49,-0.22 0.79,-0.33 1.24,-0.01 0.16,0.11 0.38,0.08 0.49,-0.08 0.11,-0.16 0.08,-0.38 -0.08,-0.49 -0.79,-0.57 -1.45,-0.27 -1.94,-0.06 -0.47,0.21 -0.69,0.29 -1.02,0.01 -0.34,-0.3 -0.9,-0.21 -1.55,-0.12 -0.11,0.02 -0.22,0.03 -0.33,0.05 -0.35,0.05 -0.4,0.01 -0.58,-0.11l-0.07 -0.05c-0.25,-0.16 -0.58,-0.1 -0.93,-0.03 -0.09,0.02 -0.19,0.04 -0.28,0.05l-0.68 0.1c-0.19,0.03 -0.33,0.21 -0.3,0.4 0.03,0.19 0.21,0.33 0.4,0.3l-0 0z"/>
     <path class="fil1" d="M7.33 6.3c-0.4,0 -0.92,0.19 -0.98,0.21 -0.18,0.07 -0.27,0.27 -0.2,0.46 0.07,0.18 0.27,0.27 0.46,0.21 0.12,-0.05 0.5,-0.17 0.72,-0.17 0.21,0 0.36,0.11 0.36,0.11 0.07,0.05 0.14,0.08 0.22,0.08 0.1,0 0.21,-0.05 0.28,-0.13 0.12,-0.15 0.1,-0.37 -0.06,-0.5 -0.03,-0.03 -0.35,-0.27 -0.81,-0.27l0 0z"/>
     <path class="fil1" d="M2.37 7.2c0.02,0 0.26,0.05 0.61,0.05 0.18,0 0.38,-0.01 0.6,-0.05 0.14,-0.02 0.28,-0.05 0.41,-0.08 0.45,-0.1 0.87,-0.18 1.1,0 0.15,0.12 0.37,0.1 0.5,-0.05 0.12,-0.15 0.1,-0.37 -0.05,-0.5 -0.49,-0.41 -1.13,-0.27 -1.7,-0.15 -0.13,0.03 -0.26,0.05 -0.38,0.07 -0.51,0.08 -0.96,0 -0.97,0 -0.19,-0.03 -0.38,0.09 -0.41,0.28 -0.04,0.19 0.09,0.38 0.28,0.41l0 -0z"/>
     <path class="fil1" d="M2.46 11.63c0.01,-0 0.96,-0.06 1.8,-0.14 0.27,-0.03 0.5,-0.08 0.71,-0.12 0.51,-0.11 0.75,-0.16 1.09,0.17 0.15,0.14 0.38,0.2 0.74,0.2 0.32,0 0.75,-0.05 1.3,-0.11 0.26,-0.03 0.54,-0.06 0.77,-0.08 0.48,-0.04 0.78,0.07 0.78,0.07 0.18,0.07 0.39,-0.02 0.46,-0.2 0.07,-0.18 -0.02,-0.39 -0.2,-0.46 -0.04,-0.02 -0.45,-0.17 -1.1,-0.11 -0.25,0.02 -0.53,0.05 -0.8,0.08 -0.48,0.06 -1.28,0.15 -1.48,0.08 -0.6,-0.57 -1.16,-0.44 -1.7,-0.33 -0.2,0.04 -0.4,0.09 -0.63,0.11 -0.83,0.08 -1.76,0.14 -1.77,0.14 -0.19,0.01 -0.34,0.18 -0.33,0.38 0.01,0.19 0.18,0.34 0.38,0.33z"/>
     <path class="fil1" d="M7.98 13.29c-0.6,0.14 -0.72,0.08 -0.89,-0.01 -0.17,-0.09 -0.4,-0.21 -0.88,-0.21 -0.31,0 -0.64,0.07 -0.97,0.13 -0.43,0.09 -0.95,0.19 -1.12,0.05 -0.63,-0.57 -1.72,0.01 -1.84,0.07 -0.17,0.09 -0.23,0.31 -0.14,0.48 0.09,0.17 0.31,0.23 0.48,0.14 0.26,-0.14 0.84,-0.34 1.03,-0.17 0.43,0.39 1.09,0.25 1.73,0.12 0.29,-0.06 0.59,-0.12 0.83,-0.12 0.31,0 0.43,0.06 0.56,0.13 0.19,0.1 0.37,0.17 0.66,0.17 0.18,0 0.42,-0.03 0.72,-0.1 0.19,-0.05 0.31,-0.24 0.26,-0.43 -0.04,-0.19 -0.24,-0.31 -0.43,-0.26l-0 -0z"/>
     <path class="fil1" d="M5.72 15.98c0.25,-0.06 0.49,-0.12 0.75,-0.11 0.67,0.02 1.12,0.17 1.45,0.29 0.18,0.06 0.36,0.12 0.53,0.12 0.15,0 0.28,-0.05 0.39,-0.18 0.2,-0.24 0.74,0.07 0.74,0.07 0.17,0.1 0.38,0.05 0.49,-0.11 0.1,-0.17 0.05,-0.38 -0.11,-0.49 -0.37,-0.23 -1.1,-0.48 -1.58,-0.01 -0.06,-0.02 -0.15,-0.05 -0.23,-0.07 -0.35,-0.12 -0.88,-0.3 -1.66,-0.32 -0.35,-0.01 -0.65,0.06 -0.93,0.13 -0.33,0.08 -0.62,0.15 -0.95,0.08 -1.04,-0.22 -2.22,0.15 -2.27,0.16 -0.19,0.06 -0.29,0.26 -0.23,0.44 0.06,0.19 0.26,0.29 0.44,0.23 0.01,-0 1.05,-0.33 1.91,-0.14 0.49,0.1 0.9,0 1.26,-0.08l-0 0z"/>
     <path class="fil1" d="M23.05 11.28c-0.03,-0 -0.81,-0.11 -1.44,-0.04 -0.22,0.03 -0.37,0.11 -0.47,0.18 -0.1,0.06 -0.15,0.09 -0.31,0.08 -0.28,-0.01 -0.55,-0.09 -0.84,-0.18 -0.61,-0.18 -1.29,-0.38 -2.23,-0.02 -0.16,0.06 -0.47,0 -0.78,-0.06 -0.14,-0.03 -0.28,-0.06 -0.43,-0.08 -0.51,-0.07 -0.97,0.12 -1.03,0.15 -0.18,0.08 -0.26,0.29 -0.18,0.47 0.08,0.18 0.29,0.26 0.47,0.18 0,-0 0.33,-0.14 0.63,-0.09 0.13,0.02 0.27,0.05 0.4,0.07 0.42,0.08 0.81,0.16 1.16,0.03 0.72,-0.27 1.21,-0.13 1.79,0.04 0.31,0.09 0.64,0.19 1,0.21 0.03,0 0.05,0 0.08,0 0.32,0 0.5,-0.11 0.63,-0.19 0.08,-0.05 0.12,-0.07 0.18,-0.08 0.54,-0.06 1.26,0.04 1.26,0.04 0.19,0.03 0.37,-0.11 0.4,-0.3 0.03,-0.19 -0.11,-0.37 -0.3,-0.4l-0 0z"/>
     <path class="fil1" d="M20.99 14.02c0.18,0.07 0.37,0.15 0.61,0.15 0.01,0 0.02,-0 0.02,-0 0.77,-0.02 1.37,-0.06 1.4,-0.06 0.19,-0.01 0.34,-0.18 0.33,-0.38 -0.01,-0.19 -0.18,-0.34 -0.38,-0.33 -0.01,0 -0.61,0.04 -1.36,0.06 -0.11,-0 -0.22,-0.04 -0.36,-0.1 -0.33,-0.13 -0.82,-0.32 -1.43,0.16 -0.15,0.12 -0.18,0.34 -0.06,0.5 0.12,0.15 0.34,0.18 0.5,0.06 0.3,-0.23 0.44,-0.17 0.74,-0.06l0 0z"/>
     <path class="fil1" d="M15.62 14.1c0.02,0 0.45,0.07 0.93,0.07 0.12,0 0.25,-0 0.37,-0.01 0.17,-0.01 0.31,-0.05 0.44,-0.08 0.27,-0.06 0.4,-0.09 0.6,-0 0.18,0.08 0.39,0 0.47,-0.17 0.08,-0.18 0,-0.39 -0.17,-0.47 -0.43,-0.2 -0.78,-0.11 -1.06,-0.04 -0.12,0.03 -0.22,0.05 -0.34,0.06 -0.53,0.04 -1.13,-0.05 -1.14,-0.05 -0.19,-0.03 -0.37,0.1 -0.4,0.3 -0.03,0.19 0.1,0.37 0.3,0.4l-0 0z"/>
     <path class="fil1" d="M15.38 16.17c0.1,0.16 0.32,0.21 0.49,0.11 0.19,-0.12 0.56,-0.26 0.74,-0.17 0.61,0.31 1.06,0.23 1.42,0.16 0.15,-0.03 0.27,-0.05 0.39,-0.04 0.33,0.01 0.47,0.06 0.61,0.11 0.15,0.05 0.29,0.09 0.47,0.09 0.16,0 0.35,-0.03 0.63,-0.1 0.19,-0.05 0.3,-0.24 0.25,-0.43 -0.05,-0.19 -0.24,-0.3 -0.43,-0.25 -0.44,0.11 -0.52,0.08 -0.69,0.02 -0.16,-0.05 -0.38,-0.13 -0.81,-0.15 -0.2,-0.01 -0.38,0.02 -0.55,0.06 -0.31,0.06 -0.58,0.11 -0.97,-0.09 -0.61,-0.31 -1.36,0.15 -1.44,0.21 -0.16,0.11 -0.21,0.32 -0.11,0.49l-0 0z"/>
    </g>
   </g>
  </g>
 </g>
</svg>
