<svg height="72" viewBox="0 0 73 72" width="73" xmlns="http://www.w3.org/2000/svg" xmlns:xlink="http://www.w3.org/1999/xlink"><defs><linearGradient id="a" x1="112.689855%" x2="-24.054663%" y1="18.554835%" y2="74.876763%"><stop offset="0" stop-color="#fff"/><stop offset="1" stop-color="#eff7ff"/></linearGradient><path id="b" d="m67.5406213 35.1036946c-1.1765854.0004581-2.1794169-.9465231-2.167239-2.1351671.0290235-2.8328821 4.8480579-2.18373 5.0748039-2.2311477 4.3641817-.0971259 7.4826205-3.6030515 7.4826205-7.920116 0-4.2975936-3.537919-7.8186378-7.8111755-7.8172638l-39.3767233.0167226c-4.2734833.0013744-7.6846513 3.5370791-7.6846513 7.8541437 0 4.2733121 3.2946205 7.7693876 7.567877 7.7693876.4546259.4581412 1.2892782.6725513 1.2897317 2.1915185.0002267.7662411-.2120076 1.2537034-.4859168 1.5888337-.3632472.444626-.924217.6753001-1.4949369.6762164l-13.2183892.0123698c-4.2732565.0013744-7.7166224 3.5054674-7.7166224 7.822532 0 4.347531 3.5050408 7.887359 7.7891812 7.8859846l13.3192911-.002978c1.0530088-.0004581 1.937772.8436671 1.9484291 1.9072419.0006802 1.8440183-1.2892782 2.0978286-1.5160243 2.1452462l-4.5349215.2835894c-4.1802906 0-7.6753546 3.4074252-7.6739941 7.7244898.0013604 4.3172936 3.4989186 7.7845063 7.7721752 7.7831322l40.5929892-.0435238c4.2732565-.0013744 7.7685473-3.4175043 7.7671868-7.7345689s-3.4989187-7.7295293-7.7721752-7.7295293c-.4546259-.2290706-1.2890514-.6872118-1.2897317-2.206179.0097501-1.171238.9491591-2.0751506 2.0729127-2.0790448l12.807752-.0329861c4.2732565-.0013745 7.6245635-3.6071748 7.6245635-7.9242394 0-4.2975936-3.3562954-7.8090168-7.6295519-7.8076424z"/><filter id="c" height="105.4%" width="103.8%" x="-1.9%" y="-2.7%"><feGaussianBlur in="SourceAlpha" result="shadowBlurInner1" stdDeviation=".5"/><feOffset dx="2" dy="1" in="shadowBlurInner1" result="shadowOffsetInner1"/><feComposite in="shadowOffsetInner1" in2="SourceAlpha" k2="-1" k3="1" operator="arithmetic" result="shadowInnerInner1"/><feColorMatrix in="shadowInnerInner1" type="matrix" values="0 0 0 0 0   0 0 0 0 0   0 0 0 0 0  0 0 0 0.3 0"/></filter></defs><g fill="none" fill-rule="evenodd" transform="translate(-12 -7)"><g transform="matrix(.89100652 -.4539905 .4539905 .89100652 -14.162907 26.665678)"><use fill="url(#a)" fill-rule="evenodd" xlink:href="#b"/><use fill="#000" filter="url(#c)" xlink:href="#b"/></g><g fill="#5c2fa8" fill-rule="nonzero" transform="translate(27 18)"><path d="m38.2716049 14.8148148h-34.5679012c-2.04549907 0-3.7037037 1.6582046-3.7037037 3.7037037s1.65820463 3.7037037 3.7037037 3.7037037h9.8765432v9.3827161l-10.12345678 10.8024691c-.84320211.6578988-1.36084768 1.6481773-1.41975308 2.7160494-.08179164 1.0615011.27518503 2.1101201.98765432 2.9012346.70158.8113469 1.70290673 1.3025479 2.77393904 1.3607562s2.11969542-.3215802 2.9050733-1.0521143l11.1111111-11.2962963h9.8148148v8.6419753c0 2.0454991 1.6582047 3.7037037 3.7037037 3.7037037 2.0454991 0 3.7037037-1.6582046 3.7037037-3.7037037v-12.345679c0-2.045499-1.6582046-3.7037037-3.7037037-3.7037037h-4.9382716v-7.4074074h9.8765432c2.0454991 0 3.7037037-1.6582046 3.7037037-3.7037037s-1.6582046-3.7037037-3.7037037-3.7037037z"/><circle cx="20.987654" cy="6.17284" r="6.17284"/></g></g></svg>